<svg id="Layer_1" data-name="Layer 1" xmlns="http://www.w3.org/2000/svg" viewBox="0 0 32 32"><defs><style>.cls-1{fill:#cd0124;}</style></defs><title>chz</title><path class="cls-1" d="M29.26.12A1.82,1.82,0,0,0,27,.92c-.16.48-.48.48-.8.48H5.93c-.48,0-.64,0-.8-.32A2,2,0,0,0,2.74.28,2.44,2.44,0,0,0,1.3,2.35,2,2,0,0,0,3.06,4.27c.48,0,.64.16.64.32,1.59,3.2,3,6.23,4.47,9.43a.73.73,0,0,1,0,.8,2,2,0,0,0,1.44,3,1.15,1.15,0,0,1,.8.64c1.6,3.2,3,6.4,4.63,9.59a1,1,0,0,1,0,1h0a1.85,1.85,0,0,0,.48,2.56,2,2,0,0,0,2.56-.16,2,2,0,0,0,.32-2.72.73.73,0,0,1,0-.8c1.28-3.19,2.71-6.55,4.15-9.75.16-.32.32-.47.48-.47a1.48,1.48,0,0,0,.29-.12,2.07,2.07,0,0,0,1-2.76v-.64c1.28-3.2,2.72-6.39,4-9.59.16-.32.32-.48.64-.48A2.08,2.08,0,0,0,30.7,2,2.23,2.23,0,0,0,29.26.12ZM26.07,3v.16c0,.16-.16.16-.32.32C22.87,5.71,19.84,7.79,16.8,10a.73.73,0,0,1-.8,0L6.41,3.31A1.23,1.23,0,0,0,5.93,3ZM10.57,14.18c-1-.16-1.12-.8-1.44-1.44L5.77,5.55c-.16-.32-.16-.48-.32-.8l.16-.16c3,2.08,6.24,4.32,9.43,6.55l-.64.64c-1,.8-2.08,1.44-3,2.24A1.5,1.5,0,0,1,10.57,14.18ZM21,17.7c-1.43,3.19-2.71,6.39-4.15,9.58-.16.16-.16.32-.32.48-.48-1-.8-1.92-1.28-2.71-1.28-2.56-2.4-5.12-3.67-7.67a.69.69,0,0,1,0-.8,1.75,1.75,0,0,0,.32-1,.88.88,0,0,1,.47-.8l3.52-2.56a.73.73,0,0,1,.8,0c1.12.8,2.4,1.6,3.51,2.4.32.16.32.32.32.64a2.12,2.12,0,0,0,.32,1.76C21.11,17.22,21.11,17.38,21,17.7ZM26.39,5.39C25.27,8,24.15,10.66,23,13.22c0,.16-.16.48-.32.48-.48,0-1,.16-1.28,0-1.28-.8-2.55-1.6-3.83-2.56,3-2.23,6.07-4.31,8.79-6.23h.16C26.55,5.07,26.39,5.23,26.39,5.39Z"/></svg>