<svg xmlns="http://www.w3.org/2000/svg" width="172059" height="174556.8"><style>.B{clip-path:url(#A)}.C{fill:#00f}.D{fill:#80ff77}.E{fill:#ffe600}.F{fill:#d7ff1f}.G{fill:#16ffe1}.H{fill:#00d0ff}.I{fill:#00c4ff}.J{fill:#00d8ff}.K{fill:#ffe200}.L{fill:#02e8f4}.M{fill:#0cf4eb}.N{fill:#ffea00}.O{fill:#fbf100}.P{fill:#ffdb00}.Q{fill:gold}.R{fill:#00d4ff}.S{fill:#83ff73}.T{fill:#1cffdb}.U{fill:#00b8ff}.V{fill:#56ffa0}.W{fill:#00b0ff}.X{fill:#c1ff36}.Y{fill:#97ff60}.Z{fill:#53ffa4}.a{fill:#f1fc06}.b{fill:#00e4f8}.c{fill:#43ffb4}.d{fill:#7dff7a}.e{fill:#feed00}.f{fill:#c4ff33}.g{fill:#0068ff}.h{fill:#009cff}.i{fill:#94ff63}.j{fill:#ffa700}.k{fill:#66ff90}.l{fill:#fc0}.m{fill:#ffd000}.n{fill:#5aff9d}.o{fill:#00c8ff}.p{fill:#0054ff}.q{fill:#3cffba}.r{fill:#ff9800}.s{fill:#ff4e00}.t{fill:#ff9400}.u{fill:#ffb900}.v{fill:#0098ff}.w{fill:#00acff}.x{fill:#00e0fb}.y{fill:#00a0ff}.z{fill:#d1ff26}.AA{fill:#beff39}.AB{fill:#13fce4}.AC{fill:#00dcfe}.AD{fill:#00a8ff}.AE{fill:#50ffa7}.AF{fill:#29ffce}.AG{fill:#e4ff13}.AH{fill:#ffc100}.AI{fill:#f8f500}.AJ{fill:#40ffb7}.AK{fill:#ff6c00}.AL{fill:#87ff70}.AM{fill:#e7ff0f}.AN{fill:#deff19}.AO{fill:#6dff8a}.AP{fill:#0028ff}.AQ{fill:#0018ff}.AR{fill:#0014ff}.AS{fill:#0cf}.AT{fill:#00bcff}.AU{fill:#0070ff}.AV{fill:#26ffd1}.AW{fill:#008cff}.AX{fill:#c7ff30}.AY{fill:#63ff94}.AZ{fill:#d4ff23}.Aa{fill:#ebff0c}.Ab{fill:#b7ff40}.Ac{fill:#ff6000}.Ad{fill:#ff6400}.Ae{fill:#b4ff43}.Af{fill:#ffd300}.Ag{fill:#00b4ff}.Ah{fill:#aaff4d}.Ai{fill:#f10800}.Aj{fill:#df0000}.Ak{fill:#30ffc7}.Al{fill:#ffae00}.Am{fill:#f4f802}.An{fill:#ffde00}.Ao{fill:#b1ff46}.Ap{fill:#0000f1}.Aq{fill:#0084ff}.Ar{fill:#00b}.As{fill:#0000ed}.At{fill:#002cff}.Au{fill:#0064ff}.Av{fill:#19ffde}.Aw{fill:#2cffca}.Ax{fill:#06ecf1}.Ay{fill:#caff2c}.Az{fill:#ceff29}.BA{fill:#0ff8e7}.BB{fill:#8dff6a}.BC{fill:#0080ff}.BD{fill:#ff7a00}.BE{fill:#1fffd7}.BF{fill:#ffab00}.BG{fill:#4dffaa}.BH{fill:#09f0ee}.BI{fill:#ff2900}.BJ{fill:#adff49}.BK{fill:#ff3800}.BL{fill:#00c0ff}.BM{fill:#d10000}.BN{fill:#ff8d00}.BO{fill:#ff7e00}.BP{fill:#ffc400}.BQ{fill:#b00}.BR{fill:#ffa300}.BS{fill:#ff8200}.BT{fill:#9aff5d}.BU{fill:#eeff09}.BV{fill:#ff9f00}.BW{fill:#ff4a00}.BX{fill:#0000da}.BY{fill:#0058ff}.BZ{fill:#0000e8}.Ba{fill:#003cff}.Bb{fill:#0008ff}.Bc{fill:#0078ff}.Bd{fill:#00009f}.Be{fill:#23ffd4}.Bf{fill:#5dff9a}.Bg{fill:#006cff}.Bh{fill:#005cff}.Bi{fill:#0038ff}.Bj{fill:#0000cd}.Bk{fill:#60ff97}.Bl{fill:#0074ff}.Bm{fill:#36ffc1}.Bn{fill:#007cff}.Bo{fill:#ffb200}.Bp{fill:#ffbd00}.Bq{fill:#ffc800}.Br{fill:#ff6f00}.Bs{fill:#e1ff16}.Bt{fill:#46ffb1}.Bu{fill:#ff3000}.Bv{fill:#ff5900}.Bw{fill:#ff2500}.Bx{fill:#ff1e00}.By{fill:#ffb600}.Bz{fill:#ff1300}.CA{fill:#b20000}.CB{fill:#a0ff56}.CC{fill:#a40000}.CD{fill:#ff1a00}.CE{fill:maroon}.CF{fill:#920000}.CG{fill:#0048ff}.CH{fill:#0000c4}.CI{fill:#0000c8}.CJ{fill:#0090ff}.CK{fill:#0000d1}.CL{fill:#0000ad}.CM{fill:#0050ff}.CN{fill:#0034ff}.CO{fill:#0000a8}.CP{fill:#00009b}.CQ{fill:#000089}.CR{fill:#0024ff}.CS{fill:#90ff66}.CT{fill:#33ffc4}.CU{fill:#0040ff}.CV{fill:#000084}.CW{fill:#004cff}.CX{fill:#0000fa}.CY{fill:#0094ff}.CZ{fill:#0020ff}.Ca{fill:#ff9c00}.Cb{fill:#ff8900}.Cc{fill:#ff3f00}.Cd{fill:#49ffad}.Ce{fill:#ff3b00}.Cf{fill:#ff8600}.Cg{fill:#8aff6d}.Ch{fill:#ff9100}.Ci{fill:#39ffbe}.Cj{fill:#baff3c}.Ck{fill:#a7ff50}.Cl{fill:#c80000}.Cm{fill:#e40000}.Cn{fill:#6aff8d}.Co{fill:#ff3400}.Cp{fill:#ff6800}.Cq{fill:#9dff5a}.Cr{fill:#a80000}.Cs{fill:#960000}.Ct{fill:#890000}.Cu{fill:#0000a4}.Cv{fill:#0000d6}.Cw{fill:#0000bf}.Cx{fill:#000096}.Cy{fill:#000092}.Cz{fill:#000cff}.DA{fill:#0030ff}.DB{fill:#00a4ff}.DC{fill:#fa0f00}.DD{fill:#cd0000}.DE{fill:#a4ff53}.DF{fill:#d60000}.DG{fill:#ff5200}.DH{fill:#ff7300}.DI{fill:#da0000}.DJ{fill:#e80000}.DK{fill:#b60000}</style><defs><clipPath id="A"><path fill="none" d="M0 0h414.7v417.8H0z"/></clipPath></defs><path d="m140.8 245.6 33.7-6 2 14-31.6 7zm-29.5 8.7 29.5-8.7 4 14.8-27.6 9.3z" class="B C"/><path d="m137.3 228.3 35.4-5.2 1.7 16.4-33.6 6z" class="B AP"/><path d="m106 236.3 31.4-8 3.5 17.3-29.5 8.7z" class="B AQ"/><path d="m144.7 260.4 31.7-7 2 11.3-29.5 7.7z" class="B Ap"/><path d="m117.2 269.7 27.6-9.3 4.2 12-25.4 9.8z" class="B BX"/><path d="m134.2 209 37-4.2 1.5 18.3-35.4 5.2z" class="B BY"/><path d="m101.3 216 33-7 3 19.3-31.4 8z" class="B CG"/><path d="m174.5 239.5 36.4-3.7v13l-34.6 4.5z" class="B AR"/><path d="m149 272.4 29.5-7.7 2.3 8.3-27.4 8.2z" class="B BX"/><path d="m86.7 265.4 24.6-11 6 15.4-22.5 11.6z" class="B BZ"/><path d="m123.6 282.2 25.4-9.8 4.4 8.8-23 10.3z" class="B CH"/><path d="m172.7 223 38-2.6.1 15.3-36.4 3.7z" class="B Ba"/><path d="m79.6 246.8 26.3-10.5 5.4 18-24.5 11z" class="B Bb"/><path d="m176.4 253.4 34.6-4.5.2 10.4-32.7 5.4z" class="B C"/><path d="m94.7 281.3 22.5-11.6 6.4 12.5-20.4 12z" class="B CI"/><path d="m131.7 188 38.3-3 1.2 19.8-37 4.2z" class="B CJ"/><path d="m97.5 194.2 34.2-6 2.5 21-33 7z" class="B Aq"/><path d="m171.2 204.8 39.5-1.4.1 17-38 2.6z" class="B g"/><path d="m73.4 226 28-10 4.6 20.2-26.3 10.5z" class="B Ba"/><g class="B"><path fill="#0000f6" d="m178.5 264.7 32.7-5.4.2 7.7-30.6 6z"/><path d="m153.4 281.2 27.4-8.2 2.2 5-25 8.6z" class="CK"/><path d="m103.2 294 20.4-12 6.7 9.3-18.2 12z" class="CL"/><path d="m130.3 291.5 23-10.3 4.5 5.5-20.8 10.5z" class="Ar"/><path d="m170 185 40.7-.2v18.6l-39.5 1.4z" class="h"/><path d="m68.3 203.4 29.2-9.2 3.8 22-28 10z" class="Bc"/><path d="m180.8 273 30.6-6 .2 4.6L183 278z" class="As"/><path d="m129.8 166 39.3-2 1 21-38.3 3z" class="AS"/><path d="m211 235.8 37.6-1.3-1.5 12-36 2.4z" class="At"/><path d="m94.5 171.2 35.3-5 2 22-34.3 6z" class="I"/><path d="m211 249 36-2.4-1.6 9.6-34.2 3.2z" class="AR"/><path d="m210.8 220.6 39-.2-1.4 14-37.6 1.3z" class="CM"/><path d="m67.7 278.7 19-13.3 8 16-17.2 13.5z" class="BX"/><path d="m59 259.7 20.7-13 7 18.6-19 13.3z" class="C"/><path d="m112 303.6 18.2-12 6.8 5.7-16 12.2z" class="Cu"/><path fill="#0000b6" d="m77.5 294.8 17.2-13.5 8.5 12.8L88 307.8z"/><path d="m158 286.7 25-8.6 2.3 1.8-23 8.8z" class="Cv"/><path fill="#0004ff" d="m211.2 259.3 34.2-3.2-1.6 7-32.4 4z"/><path d="m210.7 203.4 40.4 1-1.2 16-39 .1z" class="Bc"/><path d="m137 297.2 20.8-10.5 4.5 2-18.5 10.6z" class="Cw"/><path d="m169 164 41.6 1v19.7l-40.7.2z" class="J"/><path d="M51.2 238.5 73.4 226l6.2 20.8-20.7 13z" class="CN"/><path d="m183 278.2 28.6-6.6.2 1.5-26.5 6.8z" class="Ap"/><path d="m88 307.8 15.3-13.7 9 9.5L99 317.3z" class="Bd"/><path d="m64.4 179.6 30-8.4 3 23-29 9.2z" class="AT"/><path d="m211.4 267 32.4-4-1.6 4-30.6 4.6z" class="C"/><path d="m128.6 143.5 40-1 .6 21.5-39.3 2z" class="Be"/><path d="m210.7 184.8 41.5 2.4-1 17.3-40.4-1z" class="w"/><path d="m92.7 147.6 36-4 1.2 22.6-35.2 5z" class="T"/><path d="m121 309.4 16-12.2 6.8 2-13.8 12.2z" class="CL"/><path d="m45 215.3 23.4-12 5 22.6-22.2 12.5z" class="AU"/><path d="m162.4 288.7 23-8.8 2.2-1.6-20.8 9z" class="BZ"/><path d="m99 317.3 13.2-13.7 9 5.8-11 13.6z" class="Cx"/><path d="m168.5 142.6 42.3 2.3-.1 20.2-41.6-1z" class="AV"/><path d="m211.6 271.6 30.6-4.6-1.6 1-28.8 5z" class="C"/><path fill="#04f" d="m248.5 234.5 37 1-3 10.8-35.6.3z"/><path d="m247 246.5 35.6-.3-3 8.6-34 1.3z" class="At"/><path d="m144 299.3 18.5-10.6 4.4-1.5-16.4 10.5z" class="CK"/><path d="m210.7 165 42.3 4-.8 18.3-41.5-2.4z" class="x"/><path d="m185.3 280 26.5-6.8.2-1.8-24.5 7z" class="C"/><path d="m250 220.4 38.2 2-2.6 13-37-1z" class="Au"/><path d="m61.8 155 31-7.5 2 23.6-30.2 8.4z" class="Av"/><path fill="#001cff" d="m245.4 256 34-1.3-3 6-32.6 2z"/><path d="m54.2 293.7 13.5-15 9.8 16-12 15z" class="CK"/><path d="m65.5 309.8 12-15 10.4 13-10.2 15z" class="CO"/><path d="m128 120.8 40.2.3.2 21.5-40 1z" class="n"/><path d="m251 204.5 39.3 3.4-2.3 14.6-38.2-2z" class="AW"/><path d="m44 274.6 15-15 8.8 19-13.6 15z" class="C"/><path d="m40 191 24.3-11.3 4 23.8-23.4 12z" class="U"/><path d="m91.8 124 36.3-3.2.5 22.7-36 4z" class="n"/><path d="m243.8 263 32.6-2-3.2 3.4-31 2.7z" class="AQ"/><path d="m130 311.5 13.8-12.2 6.5-1.6-11.5 12z" class="Cw"/><path d="m110 323 11-13.5 9 2-9 13.4z" class="CP"/><path d="m77.8 322.7 10-15 11 9.5-8.4 14.7z" class="Cy"/><path d="m211.8 273 28.8-5-1.6-2-27 5z" class="Cz"/><path d="m35 253.2 16.3-14.7 7.7 21.2-15 15z" class="At"/><path d="m168.3 121 42.6 3.6-.1 20.2-42.3-2.3z" class="Bf"/><path d="m210.8 145 42.8 5-.6 19-42.3-3.8z" class="Aw"/><path d="m252.2 187.2 40.2 4.7-2 16-39.3-3.4z" class="U"/><path d="m166.8 287.2 20.7-9 2-5L171 282z" class="C"/><path d="m187.5 278.3 24.5-7 .3-5-22.7 7z" class="Cz"/><path d="m242.2 267 31-2.7-3.2.7-29.4 3z" class="AQ"/><path d="m150.4 297.7 16.4-10.5 4-5.2-14.3 10.3z" class="Ap"/><path d="m60.7 130.6 31-6.6 1 23.6-31 7.5z" class="V"/><path d="m90.5 332 8.4-14.7 11.2 5.7-6.6 14.5z" class="CQ"/><path d="M27.6 229.8 45 215.3l6.3 23.2L35 253.2z" class="Bg"/><path d="m37 165.8 25-10.7 2.6 24.5L40 191z" class="G"/><path d="m253 169 41 6-1.5 17-40.2-4.7z" class="Ax"/><path d="m128.3 98.8 40 1.4-.1 21-40.2-.3z" class="i"/><path d="m212 271.3 27-5-1.4-4.8-25.3 5z" class="CR"/><path d="m121 325 9-13.4 8.8-1.8-7 13z" class="CL"/><path fill="#04f" d="m282.6 246.2 33.2 1.5-4.2 7.6-32-.5z"/><path d="m285.5 235.4 34.3 2.6-4 9.7-33.2-1.5z" class="Bh"/><path d="m211 124.7 43 6.4-.4 19-42.8-5z" class="Bf"/><path d="m92 101 36.2-2-.2 22-36.3 3.2z" class="i"/><path d="m240.6 268 29.4-3-3-2-28 3.3z" class="AP"/><path fill="#0000df" d="m139 309.7 11.5-12 6.2-5.4L147 304z"/><path d="m279.5 254.8 32 .5-4.4 5.3-30.8.3z" class="Bi"/><path d="m288 222.5 35.3 3.8-3.6 11.7-34.3-2.6z" class="Bc"/><path d="M168.4 100.2 211 105v19.8l-42.6-3.6z" class="CS"/><path fill="#00008d" d="M103.5 337.5 110 323l11 2-4.7 14z"/><path fill="#001cff" d="m171 282 18.7-8.7 2-8.3-17 8.4z"/><path d="m276.4 261 30.7-.3-4.4 2.8-29.5 1z" class="CN"/><path d="m189.6 273.3 22.7-7 .2-8-21 6.6z" class="DA"/><path d="m290.4 208 36.2 5.2-3.2 13.2-35.3-3.8z" class="y"/><path d="m253.6 150 41.4 7.5-1 17.5-41-6z" class="CT"/><path d="m22 205 18-14 4.8 24.4-17.3 14.5z" class="W"/><path d="m45.8 310 8.3-16.2 11.4 16-7 16z" class="CI"/><path d="m58.5 325.8 7-16 12.3 13-5.7 15.7z" class="Cu"/><path d="M156.6 292.3 171 282l3.7-8.6-12.3 10z" class="Bb"/><path d="m34.4 291 9.5-16.4 10.3 19-8.4 16.2z" class="C"/><path d="m61 106.7 31-5.8-.3 23-31 6.6z" class="i"/><path d="m273.2 264.3 29.5-1-4.4.3L270 265z" class="CN"/><path d="m239 266.2 28-3.3-2.8-4.8-26.6 3.3z" class="Ba"/><path d="m35.5 140.6 25.2-10 1 24.5-25 10.7z" class="V"/><path d="m72 338.4 5.7-15.7 12.7 9.3-4.2 15.3z" class="CQ"/><path fill="#04f" d="m212.3 266.4 25.3-5-1.2-7.8-24 4.8z"/><path d="m292.4 192 37 6.6-2.7 14.6-36.2-5.2z" class="o"/><path d="m211 105 43 7.7V131l-43-6.4z" class="CS"/><path d="m129.2 77.8 39.8 2.5-.6 20-40-1.4z" class="Ay"/><path d="m132 322.8 7-13 8.2-5.7-5 12.7z" class="Bj"/><path d="M24.4 269.6 35 253.2l9 21.4-9.5 16.4z" class="AP"/><path d="m93.4 79 35.8-1.2-1 21-36.2 2z" class="Az"/><path d="m169 80.3 42 5.8V105l-42.6-4.7z" class="AX"/><path d="m116.4 339 4.8-14 10.7-2-3 13.7z" class="Bd"/><path d="m254 131 41.6 8.8-.6 17.6-41.4-7.5z" class="Bk"/><path d="m270 265 28.3-1.3-4-2.3L267 263z" class="CU"/><path d="m147 304 9.5-11.7 5.7-9-7.6 11.3z" class="C"/><path fill="navy" d="m86.3 347.3 4.2-15.3 13 5.5-2.7 14.8z"/><path d="M18.3 179.4 37 165.8l3.2 25-18 14z" class="G"/><path d="m294 175 37.5 8-2 15.5-37-6.6z" class="BA"/><path d="m191.6 265 21-6.6.2-11-19.4 6z" class="BY"/><path d="m174.6 273.4 17-8.4 1.7-11.4-15.3 8z" class="CG"/><path d="m237.6 261.4 26.6-3.3-2.5-7.5-25.3 3z" class="BY"/><path d="m16.2 246 11.4-16.3 7.3 23.4-10.5 16.4z" class="g"/><path fill="#0060ff" d="m315.8 247.7 29 3-5 6.6-28-2z"/><path d="m311.6 255.3 28 2-5.3 4.5-27-1.2z" class="p"/><path d="m319.8 238 29.7 4-4.8 8.7-29-3z" class="Bl"/><path d="m212.5 258.4 24-4.8-1-10.4-22.6 4.3z" class="Bg"/><path d="m162.3 283.3 12.3-10 3.4-12-10.7 9.4z" class="Bi"/><path d="m267 263 27-1.5-4-5-26 1.6z" class="p"/><path d="m211 86 43 9v17.7l-43-7.7z" class="X"/><path d="m100.8 352.4 2.7-15 13 1.5-1.3 14.4z" class="CV"/><path d="m36 116 25-9.2-.3 24-25.2 10z" class="Y"/><path d="m307.2 260.6 27 1.2-5.4 2-26.2-.5z" class="CW"/><path d="m62.7 84 30.7-5-1.3 22-31 5.8z" class="z"/><path d="m323.4 226.3 30.5 5.3-4.4 10.4-29.7-4z" class="CJ"/><path d="m295 157.5 37.8 9.4-1.4 16-37.5-8z" class="Bm"/><path d="m254 112.6 41.6 10V140l-41.6-9z" class="BB"/><path d="m130.8 58.5 39 3.4-.8 18.4-39.8-2.5z" class="N"/><path d="m142 316.7 5-12.7 7.6-9.4-3.3 12.3z" class="C"/><path d="m302.7 263.4 26.2.5-5.3-.1-25.3-.1z" class="CM"/><path d="m129 336.5 3-13.7 10.2-6-1.3 13.3z" class="CH"/><path d="m326.6 213 31.2 6.5-4 12-30.5-5.3z" class="W"/><path d="m169.8 62 41.5 6.8L211 86l-42-5.8z" class="O"/><path d="m236.4 253.6 25.3-3-2.2-10-24.2 2.5z" class="BC"/><path d="m95.8 58.8 35-.3-1.6 19.3L93.4 79z" class="K"/><path d="m16.6 153.7 19-13 1.4 25.2-18.6 13.6z" class="Z"/><path d="M10 221.2 22 205l5.6 24.8L16.2 246z" class="W"/><path d="m154.7 294.6 7.6-11.3 5-12.4-6 10.7z" class="At"/><path d="m264.2 258 26-1.6-3.5-7.2-25 1.3z" class="AU"/><path d="m56.7 341.2 1.8-15.4L72 338.4l-1 15.2z" class="Bd"/><path d="m43.5 325.5 2.3-15.6 12.7 16-1.8 15.4z" class="CI"/><path d="m193.3 253.6 19.4-6 .3-13.6-18.2 5.5z" class="AW"/><path d="m298.3 263.7 25.3.1-5-2.5-24.5.1z" class="Bh"/><path d="m178 261.5 15.3-8 1.5-14.2-14 7z" class="Bn"/><path d="m329.3 198.5 31.7 8-3.2 13.2-31.2-6.5z" class="J"/><path d="m71 353.6 1.2-15.2 14.2 9-.6 15z" class="CQ"/><path d="m115 353.4 1.3-14.4 12.6-2.5v13.8z" class="CP"/><path d="m295.6 140 38 10.8-.8 16.2-37.8-9.4z" class="AY"/><path d="m31.6 306.7 2.8-15.7 11.4 19-2.3 15.6z" class="CX"/><path d="m212.8 247.5 22.5-4.3-1-13L213 234z" class="h"/><path d="m211.3 68.7 42 10L254 95l-43-9z" class="a"/><path d="m254 95 41.3 11.3.4 16.5-41.6-10.2z" class="AA"/><path d="m167.3 271 10.7-9.4 2.8-15-9.3 8.8z" class="AU"/><path fill="navy" d="m85.7 362.2.6-15 14.5 5V367z"/><path d="m294.2 261.4 24.4-.1-4.8-4.8h-23.6z" class="Bg"/><path d="M38 92.4 62.7 84 61 106.7 36 116z" class="AZ"/><path d="m331.4 183 32 9.3-2.4 14-31.7-8z" class="Av"/><path d="m66 63 30-4-2.6 20-30.7 5z" class="P"/><path d="m21.2 285.4 3.2-15.8 10 21.4-2.8 15.7z" class="CR"/><path d="m261.7 250.6 25-1.3-3-9.4-24.2.8z" class="CY"/><path d="m235.3 243.2 24.2-2.5-1.8-12.2-23.3 1.8z" class="w"/><path d="m133 41.4 38 4.2-1.3 16.3-39-3.4z" class="Bo"/><path d="m6 195.4 12.4-16L22 205l-12 16.2z" class="AB"/><path d="m140.8 330 1.3-13.3 9.3-9.8.2 12.7z" class="Ap"/><path d="m171 45.6 40.5 7.7-.2 15.4-41.5-6.8z" class="Bp"/><path d="m151.4 307 3.3-12.3 6.6-13-1.7 11.7z" class="CZ"/><path d="m295.6 122.7 38 12v16l-38-10.7z" class="BB"/><path d="m339.6 257.3 22.2 3-6 3.7-21.6-2.3z" class="Bg"/><path d="m344.7 250.7 22.8 4-5.7 5.7-22.2-3z" class="Bc"/><path d="M17 128.5 36 116l-.4 24.7-19 13z" class="Y"/><path d="m334.3 261.8 21.6 2.3-6 1.6-21-1.8z" class="g"/><path d="m349.5 242 23.4 5-5.4 7.6-22.8-4z" class="AW"/><path d="m99.2 40.8 34 .6-2.3 17-35 .3z" class="j"/><path d="M194.8 239.3 213 234l.2-16-17.3 4.6z" class="I"/><path d="M100.8 367v-14.6l14.3 1 .6 14.4z" class="CV"/><path d="M129 350.3v-13.8l11.8-6.5 1.4 13.3z" class="Ar"/><path d="M290.2 256.5h23.6l-4.2-7-23-.2z" class="Aq"/><path d="m161.3 281.7 6-10.8 4.2-15.6-4.6 10z" class="g"/><path d="m332.8 167 32.3 10.7-1.7 14.7-32-9.3z" class="q"/><path d="m213 234 21.4-3.6-.6-15-20.6 2.7z" class="H"/><path d="m12.7 262 3.5-15.8 8.2 23.5-3.2 15.8z" class="Au"/><path d="m329 264 21 1.8-5.8-.5-20.5-1.4z" class="g"/><path d="m180.8 246.5 14-7 1-16.8-13 6.3z" class="U"/><path d="m354 231.6 24 6.3-5 9.2-23.4-5z" class="DB"/><path d="M253.4 78.6 294.2 91l1 15.3L254 95z" class="Aa"/><path d="M211.5 53.3 252.7 64l.7 14.6-42-10z" class="Bq"/><path d="m259.5 240.7 24.2-.8-2.5-11.5-23.5.1z" class="AT"/><path d="m323.6 263.8 20.5 1.4-5.7-2.7-19.8-1.2z" class="Bl"/><path d="m357.7 219.6 24.3 7.6-4.2 10.7-24-6.3z" class="I"/><path d="m234.4 230.3 23.3-1.8-1.3-14-22.6 1z" class="AC"/><path d="m171.5 255.3 9.3-8.8 2.2-17.6-8.2 8z" class="W"/><path d="m295 106.2 37.8 13.2.7 15.3-38-12z" class="Ab"/><path d="m286.7 249.3 23 .2-3.7-9-22.2-.6z" class="DB"/><path d="m333.6 150.7 32.4 12-1 15-32.3-10.7z" class="AY"/><path d="m115.7 367.8-.6-14.4 14-3 1 14z" class="Cx"/><path d="m4 169.4 12.6-15.7 1.7 25.7-12.4 16z" class="Z"/><path d="M42 70.7 66 63l-3.2 21L38 92.4z" class="Q"/><path d="m136 27 36.5 5-1.6 13.8-38-4.2z" class="BD"/><path d="m70.5 44.2 28.7-3.4-3.4 18-30 4z" class="Ca"/><path d="m172.6 31.8 39 8.4-.2 13-40.4-7.7z" class="Cb"/><path d="m318.6 261.3 19.8 1.2-5.2-4.8-19.4-1.2z" class="Aq"/><path d="m58.5 355-1.8-14L71 353.6l1.7 13.8z" class="Bd"/><path d="m361 206.4 24.6 8.8-3.6 12-24.2-7.6z" class="b"/><path d="m45.3 339.4-1.8-14 13.2 15.7 1.8 14z" class="CI"/><path d="m151.6 319.6-.2-12.7 8.2-13.6 1.6 12.2z" class="AQ"/><path d="m6.2 237 3.8-15.8 6.2 25-3.5 16z" class="w"/><path d="M72.6 367.4 71 353.6l14.8 8.6 1.7 14z" class="CQ"/><path d="m159.6 293.3 1.7-11.6 5.6-16.3-.5 11z" class="Bh"/><path d="m196 222.6 17.3-4.6.1-18-16.6 3.6z" class="G"/><path d="m142.2 343.3-1.4-13.3 10.8-10.4 2.7 12.7z" class="As"/><path d="m252.7 64 40 13.2 1.5 13.7-40.8-12.3z" class="Q"/><path d="m213.2 218 20.6-2.7-.4-16.8-20 1.6z" class="T"/><path d="m19.6 104.3 18.4-12-2 23.5-19 12.7z" class="F"/><path d="m33.4 320.7-1.8-14 12 18.8 1.8 14z" class="CX"/><path d="m257.7 228.5 23.5-.1-2-13.2-23-.8z" class="L"/><path d="M103.6 25.7 136 27l-3 14.5-34-.6z" class="Br"/><path d="m211.7 40.2 40 11.4 1 12.4-41.2-10.7z" class="r"/><path d="m183 229 13-6.3.8-19-12.2 5.3z" class="AB"/><path d="m313.8 256.5 19.3 1.2-4.7-6.7-18.8-1.5z" class="h"/><path d="m167 265.4 4.6-10 3.3-18.4-3.6 9.4z" class="AD"/><path d="m283.7 240 22.2.6-3-10.8-21.6-1.3z" class="AS"/><path d="m363.4 192.3 25 10-2.7 12.8-24.6-8.8z" class="BE"/><path fill="navy" d="m87.4 376-1.7-14 15 4.8 1.7 14z"/><path d="M333.6 134.7 366 148v14.7l-32.4-12z" class="BB"/><path d="m294.2 91 37.3 14.2 1.4 14.3-37.7-13.2z" class="Bs"/><path d="m233.8 215.3 22.6-1-.8-15.7-22.2-.2z" class="Be"/><path d="m23 299.4-1.8-14 10.4 21.3 1.8 14z" class="CR"/><path d="m361.8 260.4 15 4-6.2 3L356 264z" class="Aq"/><path d="m130.2 364.4-1-14 13-7L144 357z" class="Ar"/><path d="m356 264 14.7 3.4-6.3 1-14.4-2.8z" class="BC"/><path d="m367.5 254.7 15.4 5-6 5-15-4z" class="CJ"/><path d="m350 265.7 14.4 2.8-6.2-.8-14-2.5z" class="Aq"/><path d="m373 247 15.6 6-5.6 6.6-15.4-5z" class="y"/><path d="m174.8 237 8.2-8 1.5-20-7.5 7z" class="M"/><path d="m2 211.2 4-15.8 4 25.8L6.2 237z" class="AB"/><path d="m309.6 249.5 18.8 1.5-4-8.5-18.4-2z" class="U"/><path d="m174.4 21 37.6 9-.3 10.4-39-8.4z" class="Ac"/><path d="m365 177.6 25 11.4-2 13.4-25-10z" class="c"/><path d="m4.5 143.7 12.6-15.2-.5 25.2L4 169.4z" class="Y"/><path d="m102.4 381-1.6-14 15 .8 1.7 14z" class="CV"/><path d="m139.5 15.4 35 5.5-1.8 11-36.5-5z" class="s"/><path d="m251.8 51.6 39 14 2 11.7-40-13.2z" class="BF"/><path d="m344 265.2 14 2.5-6-3-13.7-2.3z" class="AW"/><path d="m256.4 214.4 23 .8-1.2-14.6-22.5-2z" class="Aw"/><path d="m377.8 238 16 7-5.2 8.2-15.6-6z" class="U"/><path d="m47.6 51.3 23-7L66 63l-24 7.8z" class="t"/><path d="m76.3 28.3 27.3-2.6-4.4 15-28.7 3.4z" class="Ad"/><path d="m281.2 228.4 21.6 1.3-2.2-12.3-21.3-2.2z" class="M"/><path d="m213.3 200 20-1.6-.1-18.2-19.8.5z" class="AE"/><path d="m196.7 203.7 16.6-3.6.2-19.3-16.3 2.3z" class="BG"/><path d="m333 119.4 32.2 14.4 1 14.2-32.4-13.3z" class="Ae"/><path d="m161.2 305.5-1.6-12.2 6.8-16.8 2.8 11.6z" class="BY"/><path d="m212 29.8 38.7 12 1 9.8-40-11.4z" class="Br"/><path d="m14.5 276-1.8-14 8.5 23.5 1.8 14z" class="g"/><path d="m292.7 77.2 36.7 15 2 12.8-37.2-14z" class="K"/><path d="m154.3 332.3-2.7-12.7 9.6-14 3.7 12.2z" class="AR"/><path d="m166.4 276.5.5-11 4.3-19 .6 10.4z" class="y"/><path d="m338.4 262.5 13.7 2.3-5.5-4.7-13.5-2.3z" class="h"/><path d="m233.4 198.5 22.2.2-.3-17-22-1.4z" class="Z"/><path d="m382 227.2 16 8-4.4 9.6-16-7z" class="R"/><path d="m109 13.7 30.6 1.7L136 27l-32.5-1.2z" class="Cc"/><path d="M24.2 82 42 70.7l-4 21.7-18.4 12z" class="Af"/><path d="m184.5 209 12.2-5.3.5-20.6-12 4.3z" class="Cd"/><path d="m306 240.5 18.4 2-3.4-10-18-2.7z" class="AC"/><path d="m366 162.7 25 12.7-1 13.6-25-11.4z" class="k"/><path d="m171.2 246.3 3.6-9.4 2.2-20.8-2.8 8.6z" class="BH"/><path d="m117.4 381.7-1.7-14 14.5-3.3 1.6 14z" class="CP"/><path d="m144 357-1.7-13.8 12-11 2.2 13.6z" class="BZ"/><path d="m333.2 257.7 13.4 2.4-5-6.5-13-2.6z" class="W"/><path d="m385.6 215.2 16.3 9.3-3.8 10.7-16-8z" class="M"/><path d="m279.3 215.2 21.3 2.2-1.5-13.5-21-3.3z" class="CT"/><path d="m255.6 198.7 22.5 2-.5-15.7-22.4-3z" class="V"/><path d="m176.4 13.2 35.8 9.3-.2 7.3-37.6-9z" class="Ce"/><path d="M61.3 367.7 58.5 355l14 12.3 2.7 12.5z" class="CO"/><path d="m331.5 105 32 15.5 1.7 13.2-32.2-14.4z" class="F"/><path d="m250.7 41.8 37.8 14.4 2.3 9.3-39-14z" class="Cf"/><path d="m48.2 352-3-12.7L58.5 355l2.8 12.6z" class="Bj"/><path d="m0 185 4-15.6 2 26-4 15.8z" class="Z"/><path d="m177 216 7.5-7 .8-21.6-7 6z" class="Bt"/><path d="m143.5 7.4 33 5.8-2 7.7-35-5.5z" class="BI"/><path d="M8 251.2 6.2 237l6.5 25 1.8 14.2z" class="W"/><path d="m213.5 180.8 19.8-.4.2-19-20-1z" class="D"/><path d="m75.3 380-2.7-12.5 14.8 8.7 2.5 12.4z" class="Cy"/><path d="m290.8 65.5 36 15.8 2.7 11-36.7-15z" class="u"/><path d="m197.2 183 16.3-2.3.1-20.4-16.4 1z" class="D"/><path d="m302.8 229.8 18 2.6-2.5-11.5-17.8-3.5z" class="G"/><path d="m212.2 22.5 37 12.2 1.4 7-38.7-12z" class="s"/><path d="m366 148 25 14v13.5l-25-12.7z" class="Cg"/><path d="m7.4 119.2 12.2-15-2.5 24.2-12.6 15.2z" class="F"/><path d="m36.4 333.6-3-13 12 18.7 3 12.7z" class="C"/><path d="m328.4 251 13 2.6-4.3-8-13-3z" class="o"/><path d="m233.3 180.3 22 1.5.3-17.7-22-2.8z" class="D"/><path d="m388.3 202.4 16.5 10.6-3 11.5-16.3-9.3z" class="AF"/><path d="m83.3 15.8 25.5-2-5.2 12-27.3 2.6z" class="Bu"/><path d="m54.8 34.8 21.5-6.5-5.8 16-23 7z" class="Bv"/><path d="m370.6 267.5 6.7 4-6.4.6-6.6-3.7z" class="v"/><path d="m376.8 264.5 6.8 4.7-6.3 2.4-6.7-4z" class="h"/><path d="M90 388.5 87.4 376l15 4.8 2.4 12.3z" class="CV"/><path d="m364.3 268.5 6.6 3.7-6.4-1.2-6.4-3.3z" class="v"/><path d="m185.3 187.4 12-4.3v-21.6l-12 3z" class="D"/><path d="m383 259.6 6.8 5.5-6 4-6.8-4.7z" class="DB"/><path d="m169.2 288-2.8-11.6 5.4-19.8 3.6 11z" class="h"/><path d="m132 378.4-1.7-14L144 357l1.6 14z" class="Ar"/><path d="m165 317.7-3.7-12.2 8-17.4 4.6 11.7z" class="p"/><path fill="#ff1600" d="m114.8 5.2 28.7 2.2-4 8-30.7-1.7z"/><path d="m278 200.6 21 3.3-.6-14.5-21-4.5z" class="n"/><path d="m358 267.7 6.4 3.3-6-3-6.4-3.2z" class="y"/><path d="M26.2 312.6 23 299.4l10.4 21.3 3 13z" class="AP"/><path d="m171.8 256.7-.6-10.4 3-21.6 1.3 9.7z" class="Ax"/><path d="m329.4 92.3 31.4 16.3 2.6 12-32-15.5z" class="O"/><path d="m255.2 181.8 22.4 3 .3-16.3-22.4-4.5z" class="D"/><path d="m388.5 253 7 6.3-5.8 5.8-6.8-5.5z" class="Ag"/><path d="m324.3 242.5 13 3-3.6-9.4-12.7-3.7z" class="L"/><path d="m249.3 34.7 36.5 14.7 2.7 6.8-37.8-14.4z" class="Ad"/><path d="m30.7 62 17-10.6L42 70.7 24.2 82z" class="Ch"/><path d="m390.2 189 16.5 11.8-2 12.2-16.4-10.6z" class="Bt"/><path d="m300.6 217.4 17.8 3.5-1.7-12.5L299 204z" class="Ci"/><path fill="#f20" d="m178.6 9 34 9.4-.3 4-35.8-9.3z"/><path d="m365 133.8 25 15 1 13-25-14z" class="BJ"/><path d="m174.2 224.7 2.8-8.6 1.2-22.6-2.5 7.7z" class="c"/><path d="m352 264.8 6.4 3.2-5.7-4.6-6.2-3.3z" class="W"/><path d="m288.5 56.2 35 16.2 3.2 9-36-15.8z" class="r"/><path d="m156.5 346-2.2-13.6 10.6-14.6 2.6 13.3z" class="AR"/><path d="m213.6 160.4 20 1 .4-19.4-20.2-2.3z" class="Ae"/><path d="m393.7 244.8 7 7.3-5.2 7.2-7-6.3z" class="o"/><path fill="#00008d" d="m104.8 393.2-2.4-12.3 15 .8 2.2 12.3z"/><path d="m212.5 18.4 35.3 12.2 1.5 4-37-12.2z" class="BK"/><path d="m3.8 225.5-2-14.3L6.2 237 8 251.2z" class="AB"/><path d="m233.5 161.3 22 2.8.7-18L234 142z" class="BJ"/><path d="m197.2 161.5 16.4-1 .1-20.8-16.8-.3z" class="Ab"/><path fill="#f60b00" d="m147.8 3 30.8 6-2.2 4.2-33-5.8z"/><path d="m178.2 193.5 7-6v-22.8l-7 5z" class="D"/><path d="m.5 159.2 4-15.4-.5 25.6L0 185z" class="Y"/><path d="m346.6 260 6.2 3.3-5-6.3-6.2-3.5z" class="BL"/><path d="m17.8 289.5-3.3-13.4 8.5 23.3 3.2 13.2z" class="g"/><path d="m321 232.4 12.7 3.7-2.7-10.7-12.5-4.5z" class="BE"/><path d="m398 235.2 7 8.4-4.5 8.5-7-7.3z" class="x"/><path d="m277.6 185 21 4.5.3-15-21-6z" class="D"/><path d="m391 175.4 16.5 13-1 12.5-16.5-11.8z" class="k"/><path d="m326.7 81.3 30.8 17 3.3 10.3-31.4-16.3z" class="l"/><path d="m255.5 164 22.4 4.5 1-16.5-22.7-6z" class="Ah"/><path d="m185.3 164.6 12-3-.3-22.2-12.3 2z" class="Cj"/><path d="m299 204 17.6 4.5-.7-13.3-17.5-5.7z" class="n"/><path d="m247.8 30.6 35 14.7 3 4-36.5-14.7z" class="s"/><path d="M12.5 96.3 24.2 82l-4.6 22.3-12.2 15z" class="m"/><path d="m363.4 120.6 24.7 16 2 12.2-25-15z" class="z"/><path d="m91.2 7 23.6-1.7-6 8.5-25.6 2z" class="Ai"/><path d="m341.5 253.6 6.2 3.5-4.4-7.7-6-4z" class="J"/><path d="m145.5 371-1.6-14 12.6-11.2 1.5 14z" class="As"/><path d="m285.8 49.4 34 16.5 3.7 6.5-35-16.2z" class="BD"/><path d="M121.3.6 147.8 3l-4.3 4.4-28.7-2.2z" class="Aj"/><path d="M213.7 139.6 234 142l.7-19.3-21-3.8z" class="AG"/><path d="m181 8.4 31.8 9.2-.2.8-34-9.4z" class="DC"/><path d="m63.3 21.7 20-6-7 12.5-21.5 6.5z" class="Bw"/><path d="m402 224.5 7 9.4-3.8 9.7-7-8.4z" class="G"/><path d="m119.6 394-2.2-12.3 14.5-3.3 2 12.4z" class="Bd"/><path d="m212.7 17.6 33.5 12 1.6 1-35.3-12.2z" class="Bw"/><path fill="#dbff1c" d="m234 142 22.3 4.3 1.3-17.8-23-5.8z"/><path d="m197 139.3 16.8.3v-20.8l-17.5-1.6z" class="Aa"/><path d="m175.4 267.7-3.6-11 3.7-22.3 4.2 10.4z" class="L"/><path d="m318.4 221 12.5 4.5-1.7-11.6-12.5-5.4z" class="q"/><path d="m173.8 299.8-4.6-11.7 6.2-20.4 5.4 11.2z" class="v"/><path d="m175.5 234.4-1.3-9.7 1.5-23.5 1.6 9z" class="c"/><path d="m152.4 2.4 28.5 6-2.3.6-30.8-6z" class="Aj"/><path fill="#0000b2" d="m64.2 378.3-3-10.6 14 12.2 2.6 10.4z"/><path d="m391 162 16.5 14v12.3l-16.5-13z" class="Cg"/><path d="m51.4 363-3.2-11 13 15.6 2.8 10.6z" class="BX"/><path d="m278 168.6 21 6 1-15-21-7.3z" class="Ck"/><path d="m175.7 201.2 2.5-7.7v-24l-2.5 6.8z" class="D"/><path d="m337.2 245.5 6 4-3.7-9-6-4.4z" class="M"/><path d="m377.3 271.6-2 4.7-6.4.2 1.8-4.3z" class="AD"/><path d="m323.4 72.4 30.2 17.4 4 8.5-30.8-17z" class="BF"/><path d="M11.4 265 8 251.2l6.5 25 3.3 13.4z" class="W"/><path d="m256.2 146.2 22.6 6 1.7-16.3-23-7.4z" class="AZ"/><path d="m370.8 272.2-1.8 4.3-6.2-1.5 1.7-4z" class="w"/><path fill="#f50" d="m39 44.8 15.7-10-7.2 16.5-17 10.6z"/><path d="M2 199.4 0 185l2 26.2 2 14.3z" class="Z"/><path d="M78 390.3 75.3 380l14.6 8.6 2.3 10.2z" class="CP"/><path d="m246.2 29.7 33.5 14.5 3.2 1-35-14.7z" class="Cc"/><path d="m383.6 269.2-2 5.2-6.2 2 2-4.7z" class="w"/><path d="m178.2 169.6 7-5-.7-23.4-7.6 4z" class="AA"/><path d="m167.5 331-2.6-13.3 9-18 3 13z" class="CM"/><path d="m298.5 189.4 17.5 5.7.3-13.6-17.5-7z" class="D"/><path d="m404.7 213 7.2 10.5-3 10.4-7-9.4z" class="Ak"/><path d="m360.8 108.6 24.5 17 2.8 11-24.7-16z" class="a"/><path d="m364.5 271-1.7 4-6-3 1.7-4z" class="Ag"/><path d="m39.8 345-3.4-11.3L48.2 352l3 11z" class="C"/><path d="m283 45.3 32.7 16.5 4 4-34-16.5z" class="Ad"/><path d="m389.7 265-2 5.8-6 3.5 2-5.2z" class="U"/><path d="m213.7 118.8 21 3.8 1-18.6-21.8-5.2z" class="Q"/><path d="m184.5 141.2 12.4-2-.7-22-13 .7z" class="a"/><path fill="#ed0400" d="m183.3 11.4 29.6 9-.2-2.7L181 8.4z"/><path d="M213 20.3 244.5 32l1.7-2.3-33.5-12z" class="Bx"/><path d="m234.6 122.6 23 5.8 1.7-17-23.7-7.3z" class="K"/><path d="m358.5 268-1.7 4-5.6-4.7 1.6-4z" class="BL"/><path d="m3.5 134.5 4-15.3-3 24.5-4 15.5z" class="F"/><path d="M92.2 398.7 90 388.5l15 4.7 2 10.2z" class="Cy"/><path d="m196.2 117.2 17.5 1.6v-20l-18.5-3z" class="l"/><path d="m395.4 259.3-2 6.6-5.6 5 2-5.8z" class="I"/><path d="m316.7 208.4 12.5 5.4-.8-12.2L316 195z" class="Bf"/><path d="m333.6 236 6 4.4-2.8-10-6-5.2z" class="AV"/><path d="m390 148.8 16.4 15 1 12-16.5-14z" class="Ah"/><path d="m128.2 0 24.2 2.4-4.6.6L121.3.6z" class="Cl"/><path d="m134 390.8-2-12.4 13.7-7.3 2 12.5z" class="CH"/><path d="m352.8 263.4-1.6 4-5-6 1.6-4.2z" class="H"/><path d="M99.8 2 121.3.6l-6.5 4.6L91.2 7z" class="DD"/><path d="m278.8 152 21 7.3 2-14.8-21.5-8.8z" class="Az"/><path d="m244.6 32 31.8 14 3.3-1.8-33.5-14.5z" class="BK"/><path d="m257.5 128.4 23 7.4 2.4-15.6-23.7-9z" class="O"/><path d="m406.7 200.8 7 11.6-2 11-7-10.5z" class="BG"/><path d="m29.8 324.3-3.6-11.7 10.2 21 3.4 11.3z" class="DA"/><path d="m157 5.7 26.2 5.7-2.4-3-28.5-6z" class="BM"/><path d="M319.7 66 349 83.5l4.6 6.3-30-17.4z" class="Ch"/><path d="m158 360-1.6-14 11-15 1.6 14z" class="AR"/><path d="m213.7 98.8 21.8 5.2 1.2-17.4-23-6.7z" class="j"/><path d="m400.7 252-2.2 7.5-5 6.3 2-6.6z" class="J"/><path d="m298.8 174.5 17.5 7 1.3-13.8-17.7-8.3z" class="DE"/><path fill="#f50" d="m279.7 44.2 31.5 16.3 4.4 1.3L283 45.3z"/><path d="m357.5 98.3 24 17.5 3.7 9.7-24.5-17z" class="P"/><path d="m213 26.4 29.8 11 1.7-5.4L213 20.3z" class="Bx"/><path d="m19.8 75.8 11-14-6.5 20-11.7 14.3z" class="BN"/><path d="m235.5 104 23.7 7.3 2.2-16-24.7-8.7z" class="By"/><path d="m185.7 18 27.4 8.3v-6l-29.6-9z" class="Ai"/><path d="m73 12.3 18-5.4-8 9-20 6z" class="Cm"/><path d="m347.7 257-1.6 4.2-4.3-7.4 1.5-4.5z" class="L"/><path d="m183 117.8 13-.6-1-21.4-14.3-.6z" class="AH"/><path d="m195.2 95.8 18.5 3V80l-20-4.3z" class="r"/><path d="m106.8 403.4-2-10.2 14.8.8 1.7 10.2z" class="Cx"/><path d="m177 145.2 7.6-4-1.5-23.4-8.4 3z" class="AI"/><path d="m331 225.4 6 5.2-2-10.6-6-6z" class="c"/><path d="m7.2 239.6-3.4-14L8 251.2l3.4 13.8z" class="AB"/><path d="M242.8 37.4 273 50.8l3.3-4.8-32-14z" class="BK"/><path d="m175.7 176.4 2.5-6.8-1.2-24.4-2.8 6z" class="X"/><path d="m316 195 12.4 6.5.3-12.4-12.4-7.7z" class="D"/><path d="m213.7 80 23 6.7 1.3-15.8-24.4-8z" class="BO"/><path d="m405.2 243.6-2.2 8.3-4.5 7.7 2.2-7.5z" class="BH"/><path d="m177.3 210.2-1.6-9v-24.7l1.6 8.2z" class="S"/><path d="m259.2 111.3 23.7 9 3-14.5-24.5-10.4z" class="BP"/><path d="m213.3 35.7 28 10.2 1.7-8.5-29.8-11z" class="BI"/><path d="m179.7 245-4.2-10.5 1.8-24.2 4.6 10z" class="AJ"/><path d="m236.7 86.6 24.7 8.7L264 81l-25.8-10z" class="Ch"/><path d="m388 136.6 16.3 16 2 11.3-16.4-15z" class="Ay"/><path d="m407.6 188.4 7.2 12.6-1 11.4-7-11.6z" class="Cn"/><path d="m280.5 135.8 21.5 8.8 2.8-14-22-10.3z" class="a"/><path d="m180.8 279-5.4-11.2 4.3-22.8 5.8 10.7z" class="b"/><path d="M315.6 61.8 344 79.5l5 4L319.7 66z" class="BD"/><path d="m276.4 46 30.2 16 4.6-1.4-31.5-16.3z" class="s"/><path d="m188 28 25.3 7.6-.2-9.3-27.4-8.3z" class="Bz"/><path d="m161.8 12.8 24 5.3-2.4-6.7L157 5.7z" class="DF"/><path d="m213.6 62.8 24.4 8 1.5-13.7-26-9.2z" class="Bv"/><path d="m2.4 173.8-2-14.6L0 185l2 14.4z" class="Y"/><path d="m213.5 48 26 9.2 1.6-11.2-28-10.2z" class="Ce"/><path d="m21.5 301.8-3.7-12.3 8.4 23 3.6 11.7z" class="AU"/><path d="m343.3 249.4-1.5 4.6-3.6-8.5 1.4-5z" class="G"/><path fill="#ff4300" d="M241.2 46 270 58.3l3.2-7.5-30.3-13.4z"/><path d="m193.8 75.6 20 4.3-.1-17-21.5-5.5z" class="AK"/><path d="M238 70.8 264 81l3-12.5L239.6 57z" class="Br"/><path d="m300 159.4 17.7 8.3 2.2-13.4-17.8-9.7z" class="AX"/><path d="m49 31 14.2-9.4-8.5 13-15.7 10z" class="Bx"/><path d="m135.3 3.4 21.8 2.3-4.7-3.3L128.2 0z" class="BQ"/><path d="m353.6 89.8 23.5 18 4.5 8-24-17.5z" class="Bp"/><path fill="#f50" d="m239.6 57 27.2 11.3 3-10L241.2 46z"/><path d="m176.8 312.8-3-13 7-21 3.2 12.8z" class="v"/><path d="m190 41.3 23.4 6.6-.2-12.2L188 28z" class="BI"/><path fill="#ff4700" d="m192 57.3 21.5 5.5-.1-15-23.4-6.6z"/><path d="m261.4 95.3 24.5 10.4 3.5-13L264 81z" class="BR"/><path d="m181 95.2 14.3.6-1.4-20.2-15.8-1.8z" class="Cb"/><path d="m409 234-2.3 9.3-3.7 8.7 2.2-8.3z" class="T"/><path d="m273 50.8 29 15 4.5-4-30.2-16z" class="DG"/><path d="m329.2 213.8 6 6-.7-11.2-6-7z" class="Bk"/><path d="m369 276.5-10 5-6-1.7 10-4.7z" class="AT"/><path d="M109 1.2 128.2 0l-7 .6L99.8 2z" class="CA"/><path d="m375.4 276.3-10.3 5.2-6.2-.1 10-5z" class="U"/><path d="m147.4 383.6-2-12.5L158 360l1.7 12.7z" class="Ap"/><path d="m362.8 275-10 4.7-6-3.2 9.8-4.6z" class="I"/><path d="m283 120.2 22 10.3 3.5-13-22.4-11.7z" class="Q"/><path d="m316.3 181.5 12.4 7.6 1.4-12.4-12.5-9z" class="CB"/><path d="M311.2 60.5 338.8 78l5.3 1.6-28.5-17.7z" class="Br"/><path d="M166.3 23.5 188 28l-2.3-10-24-5.3z" class="Cm"/><path d="m264 81 25.5 11.8 4-11.2-26.5-13z" class="BS"/><path d="m8.8 111.4 3.7-15-5 23-4 15.3z" class="m"/><path d="m121.3 404.2-1.7-10.2 14.3-3.2 1.5 10.3z" class="CO"/><path d="m174.7 120.7 8.4-3-2.2-22.6-9.5 1.8z" class="u"/><path d="m339.6 240.5-1.4 5-2.8-9.3 1.5-5.6z" class="Ak"/><path d="m381.6 274.4-10.5 5.7-6 1.4 10.3-5.2z" class="AT"/><path d="m407.6 176 7 13.6.1 11.4-7.2-12.6z" class="AL"/><path d="m270 58.3 27.7 14.2L302 66l-29-15z" class="Bv"/><path d="m385.3 125.5 16 16.7 3 10.4-16.3-16z" class="AM"/><path d="m356.8 272-9.8 4.5-5.4-4.6 9.6-4.6z" class="H"/><path d="m266.8 68.5 26.5 13 4.3-9L270 58.3z" class="AK"/><path fill="#ff5d00" d="m178 73.8 15.8 1.8-1.7-18.3-17.5-3z"/><path d="m66.3 386.6-2-8.3 13.7 12 1.8 8z" class="CH"/><path d="m302 144.6 17.8 9.7 3-12.7-18-11z" class="AM"/><path d="m387.7 271-10.7 6.3-6 3 10.5-5.7z" class="I"/><path d="m349 83.5 23 18.2 5 6-23.5-18z" class="j"/><path d="m170.6 37.5 19.5 3.8-2-13.2-21.7-4.6z" class="Bz"/><path d="m54 371.8-2.5-8.7 12.8 15.2 2 8.3z" class="BZ"/><path d="m412 223.5-2.4 10.2-2.8 9.5 2.3-9.3z" class="Bm"/><path d="m351.2 267.3-9.6 4.6-5-6 9.4-4.7z" class="x"/><path d="m174.6 54.4 17.5 3-2-16-19.5-3.8z" class="Co"/><path d="m174.2 151 2.8-6-2.3-24.5-3.6 5z" class="O"/><path d="m169 345-1.6-14 9.3-18.2 1.6 14.2z" class="p"/><path d="m83.8 7 16-5-8.6 5-18 5.4z" class="BQ"/><path fill="#bf0000" d="m142.4 10.8 19.4 2-4.7-7-21.8-2.3z"/><path d="m286 105.7 22.4 11.7 4.2-11.6-23-13z" class="By"/><path d="m306.6 62 26.7 17 5.4-1-27.5-17.4z" class="Cp"/><path d="m79.7 398.2-1.8-8 14.3 8.4 1.4 7.7z" class="CL"/><path d="m15.3 277.7-4-12.7 6.4 24.5 3.7 12.3z" class="Ag"/><path d="M5.3 214 2 199.4l2 26 3.4 14z" class="Z"/><path d="m328.4 201.6 6 7 .2-11.4-6-8z" class="d"/><path d="m29.2 58 10-13.3-8.4 17-11 14z" class="s"/><path d="m393.3 266-10.8 6.8-5.5 4.4 10.7-6.3z" class="R"/><path fill="#0004ff" d="m42.7 354-3-9 11.6 18 2.5 8.7z"/><path d="m337 230.6-1.5 5.6-1.7-10 1.4-6.3z" class="Cd"/><path d="m177.4 184.7-1.7-8.2-1.5-25.4 1.3 7.5z" class="X"/><path d="m346 261.3-9.4 4.7-4.3-7 9.4-5z" class="M"/><path d="m317.6 167.7 12.4 9 2.4-12-12.6-10.3z" class="X"/><path d="m289.4 92.7 23 13 4.7-10-24-14.3z" class="r"/><path d="m171.4 97 9.5-1.8-3-21.4-11 1z" class="BO"/><path d="m302 66 25.7 16.3 5.5-3.4-26.7-17z" class="AK"/><path d="m406.5 164 7 14.6 1.2 11-7-13.6z" class="Ck"/><path d="m381.6 115.8 15.8 17.3 4 9-16-16.7z" class="N"/><path d="m304.8 130.5 18 11 4-11.7-18.5-12.5z" class="E"/><path d="m344 79.5 22.4 18.2 5.6 4-23-18.2z" class="t"/><path d="m182 220-4.6-10 .1-25.5 4.5 9.4z" class="S"/><path d="m293.3 81.5 24 14.3 5.2-8-24.8-15.4z" class="BS"/><path d="M297.6 72.5 322.4 88l5.4-5.7L302 66z" class="DH"/><path d="m93.6 406.4-1.4-7.7 14.6 4.7 1 7.6z" class="Cu"/><path d="m118.5 4.6 16.8-1.2-7-3.4L109 1.2z" class="CC"/><path d="m413.8 212.4-2.4 11.2-2 10 2.4-10.2z" class="AE"/><path d="m398.5 259.6-11 7.5-5 5.7 10.8-6.8z" class="b"/><path d="m149.3 22 17 1.5-4.5-10.7-19.4-2z" class="DD"/><path d="m185.6 255.6-6-10.8L182 220l6 10.4z" class="AJ"/><path d="m341.8 254-9.4 5-3.5-8 9.3-5.4z" class="BE"/><path d="m5.4 149-2-14.6-3 24.7 2 14.6z" class="F"/><path d="m60.5 21.3 12.6-9-9.8 9.4L49 31.2z" class="DI"/><path d="m135.4 401-1.5-10.3 13.5-7.2 1.3 10.5z" class="Bj"/><path d="m33 334-3-9.7 10 20.6 3 9z" class="Ba"/><path d="m167 74.7 11-.8-3.4-19.5h-12.8z" class="s"/><path d="m328.7 189.2 6 8L336 186l-6-9.2z" class="Cq"/><path d="m335 220-1.4 6.3-.8-10.4 1.5-7.2z" class="AY"/><path d="m155.8 36.6 14.8.9-4.3-14-17-1.5z" class="DJ"/><path d="m308.3 117.4 18.5 12.5 4.7-10.4-19-13.7z" class="BP"/><path d="m171 125.7 3.6-5-3.3-23.7-4.7 4.2z" class="Al"/><path d="m338.8 78 21.8 18 6 2L344 79.5z" class="Cf"/><path d="m319.8 154.3 12.6 10.3 3.2-11.5-12.7-11.5z" class="AN"/><path d="m184 291.7-3.2-12.8 4.7-23.3 3.5 12.7z" class="b"/><path fill="#f20" d="M161.8 54.4h12.8l-4-17-14.8-1z"/><path d="M159.8 372.6 158 360l11-14.8 1.7 13z" class="AQ"/><path d="m377 107.8 15.6 17.7 4.7 7.6-15.8-17.3z" class="m"/><path d="m403 252-11.2 8.3-4.3 7 11-7.5z" class="BA"/><path d="m404.4 152.6 7 15.4 2.2 10.5-7-14.6z" class="X"/><path d="M338.2 245.5 329 251l-2.7-8.8 9.2-6z" class="CT"/><path d="m107.8 411-1-7.6 14.5.8.6 7.6z" class="CO"/><path d="m414.8 201-2.5 12-1 10.5 2.4-11.2z" class="Cn"/><path fill="#9f0000" d="m95 6 14-4.8-9.2.8-16 5z"/><path d="m359 281.4-18 5.6-5.8-2 17.6-5.3z" class="o"/><path d="m312.5 105.8 19 13.7 5.2-8.7-19.5-15z" class="BF"/><path d="m353 279.7-17.6 5.3-5.5-3.3 17.2-5.2z" class="H"/><path d="m333.3 78.8 21.2 17.5 6-.5-22-18z" class="BS"/><path d="m11.2 252.8-4-13.2 4.2 25.4 4 12.7z" class="G"/><path d="m16.5 90.6 3.3-14.8-7.3 20.5-3.7 15z" class="BN"/><path d="m365 281.5-18 5.8-6-.4 17.8-5.5z" class="o"/><path d="m347 276.5-17.3 5.2-5.2-4.6 17-5.2z" class="J"/><path d="m128 12 14.4-1.3-7-7.4-16.8 1.2z" class="Cr"/><path d="m175.5 158.6-1.3-7.5-3-25.4.6 7z" class="e"/><path d="m317.2 95.8 19.5 15 5.7-7-20-16z" class="r"/><path d="M327.8 82.2 348.4 99l6-2.7-21.2-17.5z" class="BS"/><path d="m334.4 208.6-1.5 7.2v-10.5l1.5-8z" class="d"/><path d="m330 176.7 6 9.2 2.3-11-6-10.3z" class="Cj"/><path d="m323 141.6 12.7 11.5 4-10.4-13-12.8z" class="O"/><path d="m371 280-18.2 6-6 1 18-5.8z" class="o"/><path d="m406.7 243.2-11.3 9-3.6 8L403 252z" class="AV"/><path d="m341.6 272-17 5.2-4.7-6 17-5.2z" class="L"/><path d="m25 312.2-3.4-10.4 8.3 22.5 3 9.8z" class="Bc"/><path d="m322.4 88 20 16 6-5-20.6-16.8z" class="Cb"/><path d="m372 101.7 15.2 18 5.4 6L377 108z" class="u"/><path d="m178.4 327-1.6-14.2 7.2-21 1.6 14.4z" class="v"/><path d="m6 188.5-3.5-14.7-.5 25.6L5.3 214z" class="Y"/><path d="m166.7 101.2 4.7-4.2-4.4-22.3-6.2 3.4z" class="DH"/><path d="m335.4 236.2-9.2 6-1.7-9.4 9.2-6.5z" class="BG"/><path d="m401.3 142.2 7 16 3 9.7-7-15.4z" class="AN"/><path d="M40.4 44 49 31 39 44.8 29.2 58z" class="CD"/><path d="m377 277.2-18.5 6.5-5.6 2.5 18.2-6z" class="H"/><path d="m336.7 266-17 5.2-4-7 16.7-5.3z" class="AB"/><path d="m414.7 189.6-2.5 13 .1 10.5 2.5-12z" class="AL"/><path d="m182 194-4.5-9.4-2-26 4.2 9z" class="f"/><path d="m137.2 23.6 12-1.6-7-11.2L128 12z" class="DK"/><path d="m326.8 130 13 12.8 5-9.2-13-14z" class="Q"/><path d="m366.5 97.7 15 18 5.8 4-15.3-18z" class="j"/><path d="m148.7 394-1.3-10.5 12.4-11 1 10.7z" class="CX"/><path d="m122 411.8-.6-7.6 14-3 .2 7.6z" class="Ar"/><path d="m409.5 233.7-11.4 9.8-2.7 8.8 11.3-9z" class="q"/><path d="m382.5 272.8-18.8 7-5.2 3.8 18.5-6.5z" class="AC"/><path d="m332.4 164.6 6 10.3 3.2-10.3-6-11.5z" class="AZ"/><path d="m160.8 78 6.2-3.4-5.2-20.3-8 2.6z" class="Cc"/><path d="m334.6 197.2-1.5 8 1.3-10.4 1.6-9z" class="BT"/><path d="M73 15.5 83.8 7 73 12.3l-12.6 9z" class="CA"/><path d="m67.4 392-1-5.4 13.4 11.6.6 5z" class="Cv"/><path d="m332.4 259-16.7 5.3-3.4-7.8 16.6-5.6z" class="AV"/><path d="m55.5 377.8-1.6-6 12.4 14.8 1 5.4z" class="CX"/><path d="m333.7 226.2-9.2 6.5-.8-9.7 9.2-7.2z" class="AY"/><path d="m188 230.5-6-10.4v-26l6.2 10z" class="S"/><path d="m146 38.7 10-2-6.5-14.6-12 1.6z" class="DF"/><path d="m106.8 9.2 11.7-4.6-9.5-3.4L95 6z" class="Cs"/><path d="m397.4 133 6.8 16.6 4 8.6-7-16z" class="Am"/><path d="m153.8 57 8-2.6-6-17.8-10 2z" class="Bz"/><path d="m80.3 403.3-.6-5 14 8.2.1 4.8z" class="Cw"/><path d="m331.5 119.5 13 14 5.5-7.7-13.4-15z" class="AH"/><path d="m10.7 126-2-14.7-5.3 23 2 14.6z" class="m"/><path d="m360.6 95.8 14.6 17.8 6.3 2-15-18z" class="Ca"/><path d="m413.5 178.5-2.5 13.8 1.2 10.3 2.5-13z" class="CB"/><path d="m171.7 132.6-.6-7-4.4-24.5-.5 6.3z" class="BF"/><path d="m44.6 360.8-2-6.7L54 371.8l1.5 6z" class="AR"/><path d="m387.5 267-19 7.6-4.8 5.2 18.8-7z" class="Ax"/><path d="m18.8 289-3.5-11.2 6.2 24 3.4 10.4z" class="AT"/><path d="m170.8 358-1.7-13 9.3-18 1.5 13.2z" class="p"/><path d="m329 251-16.6 5.6-2.5-8.4 16.4-6z" class="Ci"/><path d="m336.7 110.8 13.4 15 6-6-13.7-16z" class="Al"/><path d="m189 268.3-3.5-12.7 2.5-25 3.6 12.5z" class="AJ"/><path d="m354.5 96.3 14.3 17.4 6.4-.1-14.6-17.8z" class="r"/><path d="m9.3 227.7-4-13.8 2 25.7 4 13.2z" class="V"/><path d="m411.4 223.6-11.5 10.6-1.8 9.3 11.4-9.8z" class="Z"/><path d="m335.6 153 6 11.5 4-9.3-6-12.6z" class="BU"/><path d="m342.4 103.8 13.7 16 6.3-4-14-16.7z" class="BV"/><path d="m348.4 99 14 16.7 6.4-2-14.3-17.4z" class="r"/><path d="m336 186-1.6 9 2.3-10 1.6-10z" class="Ae"/><path fill="#0000b6" d="m93.7 411.2-.1-4.8 14.2 4.6-.4 4.6z"/><path d="m335.3 285-24 6-5.3-3.4 23.6-5.8z" class="J"/><path d="m392.7 125.5 6.7 17 4.8 7.2-6.8-16.6z" class="An"/><path d="m333 215.8-9.2 7.2.3-9.8 9-8z" class="d"/><path d="m341 287-24 6-5.6-2 24-6z" class="H"/><path d="m329.7 281.7-23.6 5.8-5-4.7 23.4-5.7z" class="x"/><path d="m347 287.3-24.4 6.4-5.6-.7 24.2-6z" class="H"/><path d="m26.3 72.7 3-14.6-9.4 17.7-3.3 14.8z" class="s"/><path d="m324.5 277-23.4 5.7-4.5-6 23.2-5.7z" class="BH"/><path d="m391.8 260.2-19.2 8.2-4 6.3 19-7.6z" class="Av"/><path d="M35.3 341.6 33 334l9.8 20 2 6.7z" class="CG"/><path d="m326.2 242-16.4 6-1.7-9 16.4-6.4z" class="AE"/><path d="m411.4 168-2.6 14.4 2.2 9.9 2.5-13.8z" class="AA"/><path d="m118.5 16.7 9.5-4.6-9.5-7.5-11.7 4.6z" class="Cs"/><path d="m339.7 142.7 6 12.6 5-8.2-6-13.6z" class="E"/><path d="m135.6 408.7-.2-7.6 13.3-7-.2 8z" class="BX"/><path d="m353 286.2-25 6.8-5.5.8 24.4-6.4z" class="H"/><path d="m179.7 167.5-4.2-9-3.8-26 3.7 8.5z" class="N"/><path d="m319.8 271.2-23.2 5.7-4-6.8 23-5.8z" class="G"/><path d="m166.2 107.5.5-6.3-6-23-1.8 5.7z" class="AK"/><path d="m8.8 164.2-3.4-15-3 24.7L6 188.5z" class="F"/><path d="m412.3 213-11.6 11.3-.8 9.8 11.5-10.6z" class="AO"/><path d="m53 33.4 7.4-12-11.4 10L40.4 44z" class="BM"/><path d="m387.3 119.6 6.6 17.2 5.5 5.7-6.7-17z" class="l"/><path d="m185.6 306-1.6-14.4 5-23.4 1.6 14.4z" class="b"/><path d="m338.3 175-1.6 10 3.2-9.3 1.7-11z" class="Az"/><path d="m86.2 14 9-8-11.3 1L73 15.5z" class="Cs"/><path d="m333 205.3-9 8 1.2-9.6 9.2-8.7z" class="Y"/><path d="m107.4 415.6.4-4.6 14.1.8-1 4.5z" class="Ar"/><path d="m358.5 283.7-25 7-5.3 2L353 286z" class="J"/><path d="m160.8 383.3-1-10.7 11-14.6.8 11z" class="CZ"/><path d="M395.4 252.3 376 261l-3.4 7.4 19.2-8.2zm-79.7 12-23 5.8-3.3-7.7 23-6z" class="AF"/><path d="m344.6 133.5 6 13.6 5.6-6.7-6-14.6z" class="m"/><path d="M324.5 232.7 308 239l-.8-9.2 16.4-7z" class="k"/><path d="m408.2 158.3-2.5 15 3 9 2.5-14.4z" class="AZ"/><path d="m381.5 115.6 6.5 17.2 6 4-6.6-17.2z" class="u"/><path d="m129.8 28.3 7.4-4.7L128 12l-9.5 4.6z" class="Cr"/><path d="m15 264.7-3.7-12 4 25 3.5 11.2z" class="Av"/><path d="m188 204.2-6.2-10-2.2-26.6 6 10z" class="f"/><path d="m159 83.8 1.8-5.7-7-21-3.5 5.3z" class="Co"/><path d="m27.6 320.5-2.7-8.3 8 22 2.4 7.5z" class="BC"/><path d="m350 125.8 6 14.6 6-5-6-15.5z" class="AH"/><path d="m363.7 280-25.3 7.4-5 3.5 25-7z" class="b"/><path d="m412.2 202.6-11.6 12 .1 9.8 11.6-11.3z" class="AL"/><path d="m312.3 256.6-23 5.8-2.4-8.4 22.7-6z" class="q"/><path d="m341.6 164.6-1.7 11 4-8.4 1.7-12z" class="AG"/><path d="m375.2 113.6 6.4 17 6.4 2.2-6.5-17.2z" class="Bo"/><path d="m140.6 43.7 5.3-5-8.7-15-7.4 4.7z" class="Cl"/><path d="m150.4 62.3 3.5-5.3-8-18.3-5.3 5z" class="Ai"/><path d="m334.4 195-9.2 8.7 2-9.2 9.4-9.4z" class="Ao"/><path d="m356 119.8 6 15.5 6.4-3.4-6.3-16.2z" class="Bo"/><path d="m18.4 105.5-2-15-7.7 20.8 2 14.7z" class="BN"/><path d="m398 243.5-19.5 9.3-2.6 8.2 19.4-8.7z" class="AJ"/><path d="m368.8 113.6 6.3 16.7 6.5.3-6.4-17z" class="BF"/><path d="m362.3 115.7 6.3 16.2 6.5-1.6-6.3-16.7z" class="Al"/><path d="m323.7 223-16.4 6.9.2-9.3 16.5-7.4z" class="d"/><path d="m311.4 291-28.6 6.7-5-3.7 28.4-6.4z" class="AC"/><path d="m306 287.5-28.4 6.4-4.7-5 28-6.2z" class="b"/><path d="m10 203-4-14.4-.6 25.4 4 13.8z" class="Y"/><path d="m404.2 149.7-2.5 15.5 4 8 2.5-15z" class="Aa"/><path d="M67.4 394.6V392l13 11.3-.6 2z" class="As"/><path d="m180 340.2-1.5-13 7.2-21 1.5 13.4z" class="h"/><path d="m191.6 243-3.6-12.5.1-26.3 3.6 12.4z" class="S"/><path d="m317 293-29 7-5.2-2.3 28.6-6.7z" class="R"/><path d="m56 381-.5-3.2L67.4 392v2.6z" class="C"/><path d="m175.4 141-3.7-8.5-5.5-25 2.8 8z" class="BR"/><path d="m301 282.8-28 6.2-4.3-6 28-6zm67.5-8.1-25.6 7.8-4.5 4.8 25.3-7.4z" class="M"/><path d="m121 416.3 1-4.5 13.7-3-1.5 4.7z" class="Bj"/><path d="m309.7 248-22.7 6-1.7-8.7L308 239z" class="AE"/><path d="m79.7 405.3.6-2 13.4 8-1.2 1.6z" class="Cv"/><path d="m345.7 155.3-1.7 12 4.8-7.3 1.8-13z" class="AI"/><path d="m322.6 293.7-29.3 7-5.3-1 29-7z" class="R"/><path d="m99.8 17 7-8L95 6l-9 8z" class="Ct"/><path d="m296.6 277-28 6.2-3.7-7 27.7-6z" class="Av"/><path d="m148.5 402 .2-8 12-10.8-.5 8.2z" class="C"/><path d="m411 192.3-11.6 12.6 1.2 9.7 11.6-12z" class="CB"/><path d="m45.7 364.8-1-4 11 17 .5 3.2z" class="CR"/><path fill="#ff1600" d="M38 58.2 40.4 44 29.2 58l-3 14.6z"/><path d="m336.7 185-9.4 9.4 3-8.5 9.5-10.2z" class="AX"/><path d="m399.4 142.5-2.4 15.8 4.7 7 2.5-15.4z" class="e"/><path d="m400 234.2-19.6 10-1.7 8.7 19.5-9.3z" class="V"/><path d="m67 27.2 6-11.7-12.5 5.8-7.4 12z" class="Cr"/><path d="m328 293-29.5 7.4-5.3.5 29.3-7z" class="R"/><path d="m324 213.2-16.5 7.4 1-9 16.6-8z" class="Y"/><path d="m292.7 270-27.7 6-3-7.8 27.5-6z" class="AF"/><path d="m21.7 298-3-9 6 23.3 2.7 8.3z" class="I"/><path d="m372.6 268.4-25.8 8-4 6 25.6-7.8z" class="T"/><path d="m92.5 412.8 1.2-1.6 13.7 4.4-1.8 1.4z" class="Bj"/><path d="m308 239-22.8 6.2-.7-9 22.7-6.4z" class="k"/><path d="m350.6 147-1.8 13 5.5-6 2-13.7z" class="An"/><path d="M14 141.5 10.7 126l-5.3 23 3.4 15z" class="Af"/><path d="m190.6 282.7-1.6-14.4 2.6-25.3 1.6 14.6z" class="AJ"/><path d="m333.4 290.8-29.8 7.6-5 2L328 293z" class="AC"/><path d="m394 136.8-2.3 16 5.4 5.5 2.4-15.8z" class="P"/><path d="m408.8 182.5-11.5 13 2 9.3 11.6-12.6z" class="Ab"/><path d="m185.7 177.4-6-9.9-4.3-26.4 5.4 9.7z" class="E"/><path d="m36.8 346.4-1.5-4.8 9.3 19.2 1 4z" class="p"/><path d="m13 240.3-3.8-12.6 2 25 3.7 12z" class="V"/><path d="m289.4 262.4-27.5 6-2.4-8.4 27.5-6z" class="q"/><path d="m171.6 369-.8-11 9-17.8.7 11.4z" class="Bh"/><path d="m169 115.6-2.8-8-7.2-23.7 1.6 8z" class="Ad"/><path d="m356.2 140.4-2 13.7 6-4.4 2-14.4z" class="m"/><path d="m340 175.7-9.5 10.2 4-7.6 9.6-11z" class="AN"/><path d="m113.5 24.4 5-7.7-11.7-7.5-7 8z" class="Ct"/><path d="M400.7 224.4 381 235l-.8 9.2 19.6-10z" class="AO"/><path d="m388 132.8-2.4 16 6 4 2.4-16z" class="l"/><path d="m325.2 203.6-16.6 8 2-8.6 16.6-8.6z" class="BJ"/><path d="m376 261-26 8.6-3.3 7 25.8-8z" class="Aw"/><path d="m307.3 230-22.7 6.4.1-9 22.8-6.8z" class="d"/><path d="m275.3 291.6-32 7.6 5 4.4 32-7.7z" class="AC"/><path d="m270.8 286.2-32 7.5 4.6 5.5 32-7.6z" class="L"/><path d="m362.2 135.3-2 14.4 6.3-2.8 2-15z" class="BP"/><path d="m134 413.4 1.5-4.7 13-6.7-2 5z" class="As"/><path d="m338.4 287.3-30 7.8-4.7 3.3 29.8-7.6z" class="L"/><path d="m280.2 296-32 7.7 5.2 3 32-7.7z" class="R"/><path d="m105.5 417 2-1.4 13.6.7-2.5 1.4z" class="CK"/><path d="m381.6 130.6-2.2 16 6.2 2.3 2.4-16z" class="BP"/><path d="m287 254-27.5 6-1.6-8.7 27.5-6z" class="Z"/><path d="m266.8 279.7-32.2 7.4 4 6.6 32-7.5z" class="BA"/><path d="m368.6 132-2 15 6.4-1 2.2-15.5z" class="AH"/><path d="M405.7 173.3 394.2 187l3 8.6 11.5-13.2z" class="Az"/><path d="m375 130.3-2.2 15.5 6.5.7 2.2-15.8z" class="Bp"/><path d="m285.4 299-32 7.7 5.4 1.7 31.8-7.8z" class="R"/><path d="m344 167.3-9.6 11 4.6-6.5 9.8-11.8z" class="a"/><path fill="#ff2d00" d="m160.6 91.7-1.6-8-8.6-21.5.2 7.7z"/><path d="m263.3 272.3-32.2 7.3 3.5 7.5 32.2-7.4z" class="T"/><path d="m28.2 87.6-2-15-9.8 18 2 15z" class="s"/><path d="m191.7 216.6-3.6-12.4-2.4-26.8 3.5 12.3z" class="f"/><path fill="#9b0000" d="m126.7 36 3-7.6-11.3-11.6-5 7.7z"/><path d="m12.8 179-4-15-3 24.3 4 14.4z" class="AZ"/><path d="m29.4 326.3-1.8-5.8 7.7 21 1.5 4.8z" class="AW"/><path d="m400.6 214.6-19.7 11v9.3l19.6-10.5z" class="AL"/><path d="m290.7 300.5-31.8 7.8 5.4.2 31.7-7.8z" class="R"/><path fill="#8d0000" d="M81.7 25.3 86.2 14 73 15.5l-6 11.7z"/><path d="m327.3 194.4-16.6 8.6 3-8 16.8-9.2z" class="f"/><path d="m378.6 252.8-26 9-2.4 7.8 26-8.6z" class="c"/><path d="m343 282.5-30.3 8-4.3 4.5 30-7.8z" class="BA"/><path d="m160.3 391.5.5-8.2 10.8-14.2-.9 8.6z" class="AP"/><path d="m187 319.5-1.5-13.4 5-23.4 1.4 13.8z" class="L"/><path d="m307.5 220.6-22.8 6.8 1-8.7 22.8-7z" class="i"/><path d="m18 274.8-3-10 4 24.2 3 9z" class="T"/><path d="m66.8 394 .6.5 12.3 10.7-1.3-1z" class="C"/><path d="m285.3 245.3-27.4 6-.7-9 27.4-6z" class="k"/><path fill="#0010ff" d="M56 381.3v-.3l11.4 13.6-.6-.5z"/><path d="m260.6 264.2-32.3 7.2 2.8 8.2 32.2-7.3z" class="Ak"/><path d="m401.7 165.2-11.4 14 4 7.8 11.5-13.7z" class="AG"/><path d="m150.6 70-.2-7.7-9.8-18.6-1.4 7.5z" class="DJ"/><path d="m139.2 51.2 1.4-7.5-10.8-15.4-3 7.6z" class="BQ"/><path d="m51.2 47.5 2-14L40.4 44 38 58.2z" class="BM"/><path d="m348.8 160-9.8 11.8 5.3-5.3 10-12.4z" class="e"/><path d="m78.4 404.2 1.3 1 12.8 7.5-2-1.4z" class="Ap"/><path d="m181 150.8-5.5-9.7-6.4-25.5 4.7 9.6z" class="BV"/><path d="m296 300.7-31.7 7.8 5.2-1.2 31.6-7.8z" class="J"/><path d="m46.2 366-.5-1.2L56 381v.3z" class="Bi"/><path fill="#0000e3" d="m118.5 417.7 2.4-1.4 13.2-3-3 1.6z"/><path d="m399.4 205-19.7 11.4 1.2 9.3 19.7-11z" class="Cq"/><path d="m258.6 255.7-32.3 7 2 8.7 32.3-7.2z" class="c"/><path d="m397 158.3-11.3 14.3 4.6 6.6 11.4-14z" class="Am"/><path d="m346.8 276.5-30.5 8.3-3.7 5.8 30.3-8z" class="BE"/><path d="m330.4 186-16.8 9.2 3.7-7 17-9.8z" class="F"/><path d="m243.3 299.2-33 8.4 5.2 4.5 33-8.5z" class="J"/><path d="m380.3 244-26.2 9.3-1.6 8.4 26-9z" class="V"/><path d="m238.7 293.7-33.3 8 4.8 5.8 33-8.4z" class="b"/><path d="m354.3 154-10 12.5 5.7-4 10.2-13z" class="An"/><path d="m284.6 236.3-27.4 6 .1-9 27.4-6z" class="d"/><path d="m308.6 211.6-22.8 7 2-8.2 23-7.5z" class="Ah"/><path d="m90.5 411.4 2 1.4 13 4.2-2.7-1.7z" class="BZ"/><path d="m248.3 303.6-33 8.5 5.5 3 32.6-8.6z" class="H"/><path d="M13.7 216.3 10 203l-.6 24.8 3.8 12.6z" class="i"/><path d="m234.6 287-33.4 7.8 4.2 7 33.3-8z" class="M"/><path d="m301 299.5-31.6 7.8 5-2.7L306 297z" class="b"/><path d="m193.2 257.6-1.6-14.6.1-26.4 1.5 14.7z" class="S"/><path d="m21.7 121-3.3-15.6-7.7 20.6 3.4 15.4z" class="Ch"/><path d="m146.5 407 2-5 11.8-10.5-2.4 5.4z" class="Bb"/><path d="m391.6 152.8-11.2 14.3 5.3 5.5 11.3-14.3z" class="E"/><path d="m253.5 306.6-32.6 8.6 5.5 1.7 32.5-8.6z" class="AS"/><path d="m180.6 351.6-.7-11.4 7.2-20.7.5 12z" class="y"/><path d="m23.8 305-2-7 6 22.5 1.8 5.8z" class="AS"/><path d="m360.2 149.7-10.2 13 6-2.3 10.4-13.5z" class="Af"/><path d="m37.8 348.6-1-2.2 9 18.4.5 1.2z" class="Au"/><path d="m231 279.6-33.6 7.6 3.7 7.7 33.4-7.8z" class="T"/><path d="m257.5 246.8-32.5 7 1.3 9 32.3-7z" class="n"/><path d="m97 27.8 3-10.7-13.6-3-4.5 11.2z" class="CE"/><path d="m397.3 195.6-19.6 11.8 2 9 19.7-11.4z" class="Ae"/><path d="m385.6 148.8-11 14.3 5.7 4 11.2-14.3z" class="P"/><path d="m334.4 178.3-17 9.8 4.5-6 17.2-10.3z" class="AM"/><path d="M366.5 147 356 160.4l6.3-.7 10.5-14z" class="m"/><path d="m259 308.3-32.5 8.7 5.6.2 32.3-8.7z" class="H"/><path d="m350 269.6-30.8 8.5-3 6.7 30.5-8.3z" class="Ak"/><path d="m379.4 146.4-10.8 14.2 6 2.5 11-14.3z" class="m"/><path d="m373 145.8-10.5 14 6.2 1 10.8-14z" class="l"/><path d="m381 235-26.3 9.6-.7 9 26.2-9.3z" class="AO"/><path d="m284.7 227.4-27.4 6.2 1-8.6 27.5-6.3z" class="i"/><path d="m310.7 203-23 7.5 2.8-7.5 23-8z" class="X"/><path d="m306 297-31.6 7.7 4.5-4 31.6-7.7z" class="M"/><path d="m228.3 271.4-33.8 7.2 3 8.6 33.6-7.6z" class="Aw"/><path d="m173.7 125.2-4.7-9.6-8.4-24 4 9.6z" class="Ac"/><path d="m189.2 189.7-3.5-12.3-5-26.6 3.4 12.4z" class="E"/><path d="m102.8 415.3 2.7 1.7 13 .8-3.5-1.8z" class="As"/><path d="m16.2 251.4-3-11 1.8 24.4 3 10z" class="V"/><path d="m257 238-32.4 6.8.3 9 32.5-7z" class="AO"/><path d="m264.3 308.5-32.3 8.7 5.4-1.3 32-8.6z" class="R"/><path d="m39.8 73.2-2-15-11.6 14.5 2 15z" class="CD"/><path d="m394.2 187-19.5 12 3 8.3 19.6-11.8z" class="Ay"/><path d="m66.2 391 .6 3.2 11.6 10-1.3-3.8z" class="Cz"/><path d="m131 415 3-1.6 12.4-6.5-3.6 2z" class="C"/><path d="m210.2 307.6-32 9 5.5 4.8 31.8-9.3z" class="H"/><path d="m205.4 301.8-32.4 8.7 5 6 32-9z" class="AC"/><path d="M56 378.8v2.5L66.8 394l-.6-3.2z" class="AP"/><path d="M339 171.8 321.8 182l5-4.7 17.5-11z" class="AI"/><path d="M65.7 41 67 27.2l-14 6.2-2 14z" class="CC"/><path d="m215.4 312-31.8 9.3 5.7 3.4 31.6-9.6z" class="o"/><path d="m170.7 377.7 1-8.6 9-17.5-1 9.2z" class="Au"/><path d="m18 157-4-15.4-5.3 22.7 4 15z" class="Q"/><path d="m30.8 329.6-1.4-3.3 7.3 20 1 2.2z" class="v"/><path d="m226.3 262.7-34 7 2 9 33.8-7.2z" class="c"/><path d="m201.2 295-32.8 8.3 4.6 7.3 32.4-8.7z" class="Ax"/><path d="m77 400.4 1.3 3.8 12 7.2-2-4.3z" class="C"/><path d="m352.5 261.8-31 8.7-2.3 7.6 30.7-8.5z" class="c"/><path d="m381 225.6-26.3 10 .2 9L381 235z" class="S"/><path fill="#840000" d="m112 34.8 1.4-10.4L99.8 17l-3 10.7z"/><path d="m310.5 293-31.6 7.7 4-5.3 31.6-7.6z" class="Av"/><path d="m192 296.5-1.4-13.8 2.5-25 1.5 14z" class="AJ"/><path d="m221 315.2-31.6 9.6 6 1.8 31.2-9.6z" class="I"/><path d="m313.6 195-23 8 3.5-6.6 23.3-8.3z" class="AZ"/><path d="m285.8 218.7-27.5 6.3 1.8-8 27.6-6.5z" class="Ah"/><path d="m47 364.5-.7 1.5 9.8 15.3v-2.5z" class="CW"/><path d="m269.5 307.3-32 8.6 5-2.7 32-8.6z" class="x"/><path d="m197.5 287.2-33 7.8 4 8.2 32.8-8.3z" class="G"/><path d="M390.3 179.2 371 191.6l3.8 7.5 19.5-12z" class="AN"/><path d="m164.5 101.3-4-9.6-10-21.7 2.8 9.7z" class="BI"/><path d="m344.3 166.5-17.5 11 5.5-3.3 17.7-11.4z" class="N"/><path d="m257.7 229.2-32.5 6.7-.5 8.8 32.4-6.8z" class="S"/><path d="m20.2 282.8-2.3-8 3.8 23.2 2 7z" class="BE"/><path d="m88.4 407 2 4.3 12.3 4-3-4.5z" class="C"/><path d="m226.4 317-31.2 9.7 6 .3 31-9.7z" class="I"/><path d="m225 253.8-34 6.5 1.3 9.3 34-7z" class="V"/><path d="m115 416 3.5 1.8 12.6-2.8-4.2-1.6z" class="C"/><path d="m194.5 278.6-33.2 7.3 3.2 9 33-7.8z" class="AF"/><path d="M385.7 172.6 366.5 185l4.4 6.6 19.4-12.4z" class="BU"/><path d="m126.8 46-.1-10-13.3-11.5-1.3 10.4z" class="CF"/><path d="m158 397 2.4-5.4 10.4-13.8-2.8 6z" class="Bi"/><path d="M350 162.7 332.3 174l5.8-2 18-11.8z" class="An"/><path d="m379.7 216.3-26.2 10.2 1 9 26.3-10z" class="BT"/><path d="m39 348.2-1.2.4 8.4 17.4.7-1.5z" class="Bl"/><path d="m354 253.4-31 8.8-1.5 8.3 31-8.7z" class="n"/><path d="m178 316.6-29.6 9.8 6 5.2 29.2-10.2z" class="I"/><path d="m173 310.5-30 9.3 5.5 6.6 29.6-9.8z" class="H"/><path d="m16.5 193.2-3.7-14-3 23.8 3.8 13.4z" class="z"/><path d="m317.3 188-23.3 8.3 4.2-5.5 23.6-8.8z" class="AG"/><path d="m153.4 79.7-2.8-9.7-11.4-18.8 1.5 9.9z" class="Aj"/><path d="m314.5 287.8-31.6 7.6 3.4-6.3 31.6-7.5z" class="AF"/><path d="m193.2 231.3-1.5-14.7-2.5-27 1.5 14.8z" class="f"/><path d="m183.6 321.4-29.2 10.2 6.3 3.6 28.6-10.4z" class="AT"/><path d="m274.4 304.6-32 8.6 4.6-4 31.8-8.4z" class="BH"/><path d="M287.7 210.5 260 217l2.5-7.3 28-6.7z" class="AA"/><path d="m140.7 61-1.5-10-12.5-15 .1 10z" class="CA"/><path d="m232 317.2-31 9.7 5.7-1.4 30.6-9.6z" class="AS"/><path d="M168.4 303.2 138 312l5 8 30-9.3z" class="x"/><path d="m380.4 167-19 12.6 5 5.3 19.2-12.4z" class="O"/><path d="m31.4 103.6-3.2-16-9.8 17.8 3.3 15.6z" class="DG"/><path d="m356 160.4-18 11.8 6-.4 18.3-12z" class="P"/><path d="m184.2 163.2-3.4-12.4-7-25.6 3 12.4z" class="BV"/><path d="m25.5 309.4-1.7-4.5 5.6 21.4 1.4 3.3z" class="R"/><path d="m66.7 385.2-.5 5.7 11 9.5-.3-6.4z" class="AP"/><path d="m189.3 324.8-28.6 10.4 6.3 2 28.2-10.6z" class="U"/><path d="m259 221-32.6 6.6-1.3 8.4 32.5-6.7z" class="BT"/><path d="m187.6 331.4-.5-12 5-23 .4 12.3z" class="L"/><path d="m57.3 374-1.2 4.8 10 12 .5-5.7z" class="CU"/><path d="m224.7 244.7-34 6.2.5 9.4 34-6.5z" class="AO"/><path d="m192.4 269.6-33.4 6.7 2.3 9.6 33.2-7.3z" class="AJ"/><path d="M374.7 163 356 175.6l5.5 4 19-12.5z" class="E"/><path d="m362.4 159.7-18.3 12 6 1.2 18.5-12.4z" class="Q"/><path d="m100 410.8 3 4.5 12.2.7-3.6-4.6z" class="C"/><path d="M368.6 160.6 350 173l5.8 2.7 18.8-12.5z" class="P"/><path d="m164.5 295-30.7 8 4.2 9 30.4-8.7z" class="BA"/><path d="m76.8 394 .3 6.4 11.3 6.7-1-7z" class="AQ"/><path d="m81 38.8.6-13.5-14.7 2L65.7 41z" class="Ct"/><path d="m143 408.8 3.6-2 11.4-10-4.2 2.3z" class="AQ"/><path d="m377.7 207.4-26.3 10.4 2 8.7 26.3-10.2z" class="Ao"/><path d="m321.8 182-23.6 8.8 4.8-4.4 23.8-9z" class="a"/><path fill="#0060ff" d="m48.8 360.7-2 3.8 9.2 14.3 1.2-4.8z"/><path d="m354.8 244.5-31 9-.6 8.7 31-8.8z" class="AO"/><path d="M195.2 326.6 167 337.2l6.3.3L201 327z" class="U"/><path d="m16.7 228.3-3-12-.5 24 3 11z" class="i"/><path d="m237.4 316-30.6 9.6 5.4-3 30.3-9.4z" class="J"/><path d="m148.5 326.4-25.6 10.3 6.5 5.7 25-10.8z" class="Ag"/><path d="m318 281.6-31.6 7.5 2.7-7.3 31.5-7.4z" class="q"/><path d="m279 300.7-32 8.3 4.2-5.5 31.6-8.2z" class="G"/><path d="m143 319.8-26 9.7 6 7.2 25.6-10.3z" class="BL"/><path d="m32.5 330.4-1.7-.8 7 19 1.3-.4z" class="AD"/><path d="m290.5 203-28 6.7 3.4-6.4 28-7z" class="z"/><path d="m53 62.6-1.8-15L38 58.2l1.8 15z" class="BM"/><path d="m154.4 331.6-25 10.8 6.8 4 24.5-11z" class="AD"/><path d="m161.3 286-31 7.4 3.5 9.7 30.7-8z" class="Be"/><path fill="#0010ff" d="m87.4 400.2 1 6.8 11.5 3.8-1.8-7.2z"/><path d="m138 312-26.5 9 5.4 8.5 26-9.7z" class="R"/><path d="m191 260.3-33.6 6 1.5 10 33.4-6.7z" class="V"/><path d="m127 413.4 4.2 1.6 11.8-6.2-4.8-1.3z" class="Bb"/><path d="m225.2 236-34 5.8-.5 9.2 34-6.2z" class="S"/><path d="m261.3 213.2-32.6 6.4-2.2 8L259 221z" class="Ao"/><path d="m374.7 199-26 10.5 2.8 8.2 26.3-10.4z" class="f"/><path d="m160.7 335.2-24.5 11 7 2.2 24-11.3z" class="AD"/><path d="m326.8 177.4-23.8 9 5.2-3 24-9.5z" class="e"/><path d="m179.5 360.8 1-9.2 7-20.2-1.3 9.8z" class="AD"/><path d="m201 327-27.8 10.6 6-1.5 27.4-10.5z" class="BL"/><path d="m69.6 377.5-3 7.7 10 8.8 2-8.4z" class="CU"/><path fill="#08f" d="m41.5 345.5-2.5 2.7 8 16.3 2-3.8z"/><path d="m18.6 260.5-2.4-9 1.7 23.4 2.3 8z" class="n"/><path d="m61 367-3.6 7 9.4 11.2 3-7.7z" class="BY"/><path d="m25.5 137-3.8-16-7.6 20.4 4 15.4z" class="t"/><path d="m133.8 303-27 8.3 4.7 9.7 26.6-9z" class="Ax"/><path d="m123 336.7-21 10.7 7 6.2 20.2-11.2z" class="y"/><path d="m242.5 313.2-30.3 9.5 5-4.4 30-9.2z" class="L"/><path d="m117 329.5-21.4 10 6.6 8 20.8-10.7z" class="W"/><path d="m194.6 271.6-1.5-14 .1-26.3 1.5 14.4z" class="S"/><path d="m79 385.6-2 8.4 10.6 6.2 1.2-9z" class="CN"/><path d="m354.6 235.5-31 9 .2 9 31-9z" class="S"/><path d="m111.4 411.4 3.6 4.6 12-2.6-4.4-4.5z" class="Bb"/><path d="m159 276.3-31.2 6.6 2.5 10.4 31-7.4z" class="Ci"/><path d="m176.8 137.6-3-12.4-9.2-24 2.7 12.4z" class="Ac"/><path d="m129.4 342.4-20.2 11.2 7.4 4.3 19.6-11.6z" class="CY"/><path d="m294 196.4-28 7 4-5.4 28.3-7z" class="Bs"/><path d="m283 295.4-31.6 8.3 3.4-6.6 31.6-8z" class="AF"/><path d="m320.5 274.4-31.5 7.4 1.8-8 31.6-7.3z" class="Z"/><path d="m53 354.8-4.3 6 8.5 13.3 3.6-7z" class="Bl"/><path d="m167 337.2-24 11.3 6.8.3 23.4-11.3z" class="AD"/><path d="m371 191.6-26 10.6 3.6 7.4 26-10.5z" class="F"/><path d="m111.5 321-22 9 6 9.4 21.4-10z" class="I"/><path d="m332.3 174-24 9.5 5.5-1.6 24.4-9.8z" class="E"/><path d="m22 288.5-2-5.7 3.6 22 1.7 4.5z" class="AV"/><path d="m98 403.7 1.8 7 11.5.6-2.6-7.2z" class="AR"/><path d="m190.6 251-33.6 5.5.5 10 33.6-6z" class="AO"/><path d="M97 41V27.8l-15.2-2.5-.6 13.5z" class="CE"/><path d="m76 368.2-6.3 9.3 9.3 8 5.5-10z" class="Bh"/><path d="M102 347.4 86.5 358l7.8 6.8 15-11.3z" class="AW"/><path d="m68 358.8-7 8.3 8.7 10.4 6.3-9.3z" class="AU"/><path d="m130.3 293.3-27.3 7.3 3.8 10.7 27-8.3z" class="T"/><path d="m95.5 339.5-16.3 9.9 7.3 8.7 15.6-10.7z" class="h"/><path d="M136.2 346.3 116.6 358l7.6 2.4 19-11.8z" class="CY"/><path d="m88.6 391.3-1.2 9 10.7 3.5.4-9.2z" class="At"/><path d="m190.7 204.5-1.5-14.8-5-26.5 1.6 15z" class="E"/><path d="M206.8 325.5 179.4 336l5.8-3 27-10.2z" class="AS"/><path d="m168 383.6 2.8-6 8.8-17-3.2 6.6z" class="AU"/><path d="m226.5 227.5-34 5.4-1.4 8.8 34-5.8z" class="BT"/><path d="m264.2 206.3-32.5 6.4-3 7 32.6-6.4z" class="f"/><path d="M86.5 358 76 368.2l8.5 7.5 10-11z" class="Bl"/><path d="m109.2 353.6-15 11.2 8 4.8 14.2-11.7z" class="BC"/><path d="m84.4 375.7-5.5 9.9 9.7 5.7 4.7-10.4z" class="CW"/><path d="m27.6 311.5-2-2 5.3 20.2 1.7.8z" class="x"/><path d="m366.5 185-25.8 10.6 4.3 6.6 26-10.6z" class="AM"/><path d="m79.3 349.4-11.4 9.4 8 9.4L86.5 358z" class="Aq"/><path d="m338 172.2-24.4 9.8h5.7l24.7-10z" class="K"/><path d="m106.8 311.3-22.3 8.2 5 10.6 22-9z" class="x"/><path d="m89.6 330-17 9 6.5 10.3 16.3-10z" class="Ag"/><path d="m60.7 347.5-7.6 7.3L61 367l7-8.3z" class="AW"/><path d="m35.4 329-3 1.4 6.5 17.8 2.5-2.7z" class="Ag"/><path d="m94.3 364.8-10 11 9 5.2 9-11.3z" class="g"/><path d="m353.5 226.5-31 9 1 9 31-9z" class="BT"/><path d="m46.3 341-4.8 4.6 7.3 15.2 4.3-6z" class="h"/><path d="m247 309-30 9.2 4.3-5.8 30-8.8z" class="AB"/><path d="m173.3 337.5-23.4 11.3 6.7-1.5 22.8-11.3z" class="W"/><path d="M21.6 171.8 18 157l-5.2 22 3.7 14z" class="P"/><path d="m157.5 266.4-31.3 5.8 1.6 10.7 31.2-6.6z" class="Z"/><path d="m298.2 191-28.3 7 4.5-4 28.6-7.3z" class="BU"/><path d="m361.4 179.7-25.5 10.5 4.8 5.4 25.8-10.6z" class="Am"/><path d="m72.7 339-12 8.4 7.2 11.3 11.3-9.4z" class="y"/><path d="m344 171.8-24.7 10 5.7 1.4 25-10.3z" class="K"/><path d="m116.6 358-14.2 11.7 8.3 2.7 13.5-12z" class="Bn"/><path d="m143 348.5-19 11.8 7.5.4 18.2-12z" class="CY"/><path fill="#04f" d="m153.7 399.2 4.2-2.3 10-13.3-4.6 3z"/><path d="m43 89.4-3-16.2-11.6 14.5 3.2 16z" class="Bx"/><path d="m322.4 266.4-31.6 7.3 1-8.7 31.6-7z" class="k"/><path d="m93.3 381-4.7 10.4 10 3.2 4-10.7z" class="CG"/><path d="M356 175.6 330.6 186l5.3 4 25.5-10.5z" class="e"/><path d="m286.3 289-31.6 8 2.8-7.6 31.5-7.7z" class="q"/><path d="m350 173-25 10.3 5.5 2.8 25.3-10.5z" class="K"/><path d="m127.8 283-27.6 6.5 2.8 11.2 27.3-7.3z" class="Bm"/><path d="m102.4 369.6-9 11.3 9 3 8.3-11.5z" class="Au"/><path d="m84.5 319.5-17.4 8 5.6 11.7 17-9z" class="H"/><path d="m167.2 113.7-2.7-12.4-11-21.6 2.3 12.5z" class="BI"/><path d="m191 241.7-33.6 5-.5 9.7 33.6-5.5z" class="AL"/><path d="m98.5 394.5-.4 9 10.7.6-.5-9.2z" class="DA"/><path d="m103 300.6-22.7 7.2 4.2 11.7 22.3-8.2z" class="AB"/><path d="m192.4 308.8-.4-12.3 2.6-24.9.3 13z" class="c"/><path d="m54.5 334.7-8.2 6.2 6.8 14 7.6-7.3z" class="w"/><path d="m138 407.5 4.8 1.3 10.8-9.6-5.4-.7z" class="At"/><path d="m67.5 56-1.8-15-14.5 6.5 1.8 15z" class="Cr"/><path d="m212.2 322.7-27 10.2 5.3-4.7 26.6-9.9z" class="AC"/><path d="m112.6 47.8-.5-13-15.2-7V41z" class="CE"/><path d="m108.8 404.2 2.6 7.2 11-2.4-3.4-7z" class="CZ"/><path d="m268 200.5-32.6 6.2-3.6 6 32.5-6.4z" class="F"/><path d="m67 327.4-12.6 7.3 6.2 12.8 12-8.4z" class="BL"/><path d="m122.5 409 4.4 4.5 11.2-6-5-4z" class="CZ"/><path d="m228.7 219.6-34 5.2-2.2 8 34-5.5zm122.7-1.8-31 9 2 8.7 31-9z" class="Ao"/><path d="m19.5 206-3-13-2.8 23 3 12z" class="Az"/><path d="m124.2 360.3-13.5 12 8.2.4 12.8-12z" class="Bn"/><path d="m303 186.5-28.6 7.4 5-2.8 29-7.5z" class="O"/><path d="m179.4 336-22.8 11.3 6.2-3.4 22.4-11z" class="AT"/><path d="m40.7 325.6-5.3 3.4 6 16.5 4.8-4.6z" class="I"/><path d="m150 348.8-18.2 12 7.3-1.7 17.6-11.7z" class="h"/><path d="m157 256.4-31.4 5.1.6 10.7 31.3-5.8z" class="AO"/><path d="m102.4 383.8-4 10.7 9.8.5 3-10.7z" class="CW"/><path d="m251.3 303.7-30 8.8 3.7-7 29.6-8.4z" class="Be"/><path d="m110.7 372.3-8.3 11.5 9 .5 7.5-11.6z" class="Au"/><path d="m80.3 307.8-18 6.8 4.7 12.8 17.4-8z" class="BH"/><path d="m155.7 92.2-2.3-12.5-12.7-18.6 1.8 12.7z" class="Aj"/><path d="m323.5 258-31.6 7v-9l31.7-7z" class="d"/><path d="m31 311.4-3.3.1 5 19 3-1.4z" class="L"/><path d="m19 238.5-2.3-10.2-.6 23 2.4 9z" class="i"/><path d="M128 58.8 126.8 46 112 34.8l.5 13z" class="CF"/><path d="m289 281.8-31.5 7.7 2-8.5 31.4-7.3zm-162.8-9.6-27.8 5.5 1.8 11.7 27.6-6.5z" class="AE"/><path d="m100.2 289.4-23 6 3.2 12.3 22.7-7.2z" class="Ak"/><path d="m348.6 209.6-31 9 2.7 8.2 31-9z" class="f"/><path d="m24.4 292-2.3-3.4 3.4 21 2 2z" class="Aw"/><path d="m49.4 320.7-8.7 5 5.6 15.3 8.2-6.2z" class="R"/><path d="m20.6 267.4-2-7 1.6 22.3 2 5.7z" class="n"/><path d="M142.5 73.8 140.7 61l-14-15 1.2 12.8z" class="CA"/><path d="m62.4 314.6-13 6 5 14 12.6-7.3z" class="b"/><path d="m308.2 183.6-29 7.5 5.2-1.3 29.2-7.8z" class="N"/><path d="m192.5 233-33.6 4.5-1.4 9.3 33.6-5z" class="Cq"/><path d="m272 195.7-32.5 6.2-4.3 4.8 32.6-6.2z" class="AM"/><path d="m217 318.3-26.6 10 4.6-6.2 26.3-9.5z" class="BH"/><path d="m186.3 341.2 1.3-9.8 4.8-22.6-1.4 10.5z" class="Ax"/><path d="m108.3 395 .5 9.2 10.3-2.3-1.3-9z" class="Ba"/><path fill="#08f" d="m131.7 360.7-12.8 12 8-1.8 12-12z"/><path d="m194.7 245.7-1.5-14.4-2.5-26.8 1.5 14.8z" class="f"/><path d="m185.8 178-1.6-15-7.4-25.6 1.6 15z" class="BV"/><path d="m231.7 212.7-34 4.8-3 7.3 34-5.2z" class="AX"/><path d="m35 120-3.6-16.3-9.7 17.5 3.8 16z" class="Bv"/><path d="m185.2 333-22.4 11 5.7-5 22-10.6z" class="H"/><path d="m345 202.2-30.7 9 3.4 7.5 31-9z" class="F"/><path d="M156.6 347.3 139 359l6.8-3.6 17-11.5z" class="w"/><path d="m313.7 182-29 7.8 5.3.1 29.5-8z" class="E"/><path d="m119 372.7-7.5 11.6 8.7-2L127 371z" class="AU"/><path d="m111.4 384.3-3 10.7 9.5-2 2.3-10.6z" class="p"/><path d="M157.5 246.7 126 251l-.4 10.6 31.4-5z" class="AL"/><path d="m323.7 249-31.7 7-.7-9 31.7-7z" class="i"/><path d="M77 295.5 59 301l3.4 13.5 18-6.8z" class="AV"/><path d="m254.7 297-29.6 8.4 2.8-8 29.6-8z" class="Ci"/><path d="m119 402 3.4 7 10.5-5.5-4.2-6.6z" class="Bi"/><path d="m36.5 309.4-5.6 2 4.5 17.6 5.3-3.4z" class="M"/><path d="m291 273.7-31.5 7.4 1-9 31.5-7z" class="k"/><path d="m176.3 367.4 3.2-6.6 6.8-19.6-3.4 7.3z" class="W"/><path d="m340.7 195.6-30.5 8.8 4 6.7 30.7-9z" class="AG"/><path d="m125.6 261.5-28 4.5.7 11.7 27.8-5.5z" class="Cn"/><path d="m319.4 182-29.5 8 5.4 1.6 29.8-8.2z" class="E"/><path d="m98.4 277.7-23.3 5 2 12.8 23-6z" class="Cd"/><path d="m276.8 192.3-32.5 6-4.7 3.5 32.5-6.2z" class="Am"/><path fill="#8d0000" d="M82.8 54 81 38.8 65.7 41l1.8 15z"/><path d="m133 403.4 5 4.2 10.2-9-5.8-3.5z" class="CU"/><path d="m59 301-13.4 4.7 3.8 15 13-6z" class="BE"/><path d="m45.6 305.8-9 3.6 4.2 16.2 8.7-5z" class="G"/><path d="m336 190.2-30.3 8.7 4.6 5.5 30.5-8.8z" class="a"/><path d="m194.7 224.8-33.5 4-2.3 8.7 33.6-4.5z" class="Ae"/><path d="m325 183.3-29.8 8.2 5.3 3 30-8.4z" class="E"/><path d="m163.3 386.6 4.6-3 8.4-16.2-5 3.7z" class="Bn"/><path d="m330.6 186-30 8.4 5 4.4 30.3-8.7z" class="e"/><path d="M221.4 312.5 195 322l4-7.5 26-9z" class="T"/><path d="m148.3 398.5 5.4.7 9.6-12.6h-6z" class="p"/><path d="m56 79-3-16.3-13.2 10.6 3 16.2z" class="DF"/><path d="m139 359-12 12 7.5-4 11.4-11.5z" class="v"/><path d="m235.3 206.7-33.8 4.6-3.8 6.2 34-4.8z" class="F"/><path d="M28.8 152.5 25.5 137 18 157l3.6 15z" class="Ca"/><path d="m28 293.2-3.5-1.3 3.2 19.6 3.3-.1z" class="Ak"/><path d="m323 240-31.7 7-1.6-9 31.8-6.7z" class="Ah"/><path d="m117.8 393 1.3 9 9.7-5-2-8.7z" class="CM"/><path d="m190.5 328.2-22 10.6 5-6.7 21.5-10z" class="b"/><path d="m162.8 344-17 11.4 6.3-5.5 16.4-11z" class="BL"/><path d="m282 190.3-32.4 6-5 2 32.4-6z" class="e"/><path d="m159 237.4-31.4 3.5-1.5 10 31.5-4.2z" class="CB"/><path d="m257.5 289.5-29.6 8 2-9 29.5-7.4z" class="AE"/><path d="m127 371-6.8 11.4 8.2-4.3 6-11.2z" class="BC"/><path d="M75 282.7 56.7 287l2.3 14 18-5.6z" class="Bt"/><path d="m195 284.6-.3-13 .1-26 .3 13.5z" class="S"/><path d="m292 265-31.5 7 .1-9.3L292 256z" class="d"/><path d="m120 382.3-2.3 10.6 9-4.8 1.5-10.2z" class="g"/><path d="m23 272.2-2.4-4.8 1.5 21 2.3 3.4z" class="Bf"/><path d="m178.4 152.6-1.6-15-9.6-24 1.6 15z" class="Ac"/><path d="m24.4 185.5-2.8-13.7-5 21.4 3 13z" class="K"/><path d="m126 251-28 3.6-.4 11.5 28-4.5z" class="AL"/><path d="m97.7 266-23.4 3.9.8 12.8 23.3-5z" class="Cn"/><path d="m321.5 231.2-31.8 6.7-2.4-8.6 32-6.6z" class="AA"/><path d="m33.8 292.6-5.9.6 3 18.2 5.6-2z" class="Bm"/><path d="m197.7 217.5-33.4 3.5-3 7.7 33.5-4z" class="Ay"/><path d="m239.6 202-33.7 4.4-4.4 5 33.8-4.6z" class="AM"/><path d="m21 246.7-2-8.2-.5 22 2 7z" class="CS"/><path d="m21.7 217.4-2.2-11.3-2.7 22.2 2.3 10.2z" class="Ay"/><path d="M56.7 287 43 290.5l2.5 15.3L59 301z" class="AJ"/><path d="m287.2 189.7-32.3 6-5.4.6 32.4-6z" class="E"/><path d="m128.8 396.8 4.2 6.6 9.5-8.4-5-6z" class="p"/><path d="m225 305.5-26 9 3-8.7 26-8.3z" class="CT"/><path d="m43 290.5-9.3 2.2 2.7 16.7 9-3.6z" class="q"/><path d="m145.8 355.3-11.4 11.5 6.8-6 10.8-11z" class="w"/><path d="M98.6 56.3 96.8 41 81 38.8 82.8 54z" class="CE"/><path d="m192.2 219.3-1.5-14.8-5-26.4 1.5 15z" class="N"/><path d="m319.2 222.7-32 6.6-3-8 32-6.5z" class="z"/><path d="m292 256-31.5 6.7-.8-9.5 31.6-6.3z" class="i"/><path d="m195 322-21.5 10 4.2-8.2 21.2-9.4z" class="G"/><path d="m168.5 338.8-16.5 11 5.5-7.4 16-10.3z" class="J"/><path d="m259.4 281-29.5 7.5 1-9.6 29.5-7z" class="k"/><path d="m292.6 190.5-32.3 6-5.4-.8 32.3-6z" class="K"/><path d="m161.2 228.7-31.3 3-2.4 9.3 31.4-3.5z" class="Ab"/><path d="m191 319.3 1.4-10.5 2.5-24.2-1.5 11.2z" class="c"/><path d="M46.3 106 43 89.4l-11.5 14.2L35 120z" class="Bw"/><path d="m74.3 270-18.5 3 1 14 18.4-4.4z" class="k"/><path d="m134.4 366.8-6 11 7.5-6.6 5.4-10.6z" class="v"/><path d="m142.5 395 5.8 3.5 9-12-6.4-2.8z" class="g"/><path d="m316 214.7-32 6.5-4-7.2 32-6.4z" class="Bs"/><path d="m244.4 198.4-33.6 4.3-5 3.6 33.7-4.4z" class="AI"/><path d="m126.8 388 2 8.7 8.8-8-2.6-8z" class="Bg"/><path d="m168.8 128.8-1.6-15-11.5-21.5 1.6 15.2z" class="BI"/><path d="m26.6 275-3.6-2.7 1.4 19.7 3.5 1.3z" class="Bk"/><path d="m298 193-32.3 6-5.4-2.3 32.3-6.2z" class="E"/><path d="m201.5 211.3-33.2 3-4 6.6 33.4-3.5z" class="AN"/><path d="m127.5 241-27.8 2.6-1.6 11 28-3.6z" class="DE"/><path d="m128.3 378-1.5 10 8.2-7.2.8-9.6z" class="BC"/><path d="m98 254.5-23.4 2.8-.4 12.6 23.4-4z" class="AL"/><path d="m312.3 207.6-32 6.4-4.4-6.2 32-6.3z" class="BU"/><path d="m303 196.5-32 6.2-5.3-3.7 32.3-6.2z" class="N"/><path fill="#ad0000" d="m70.4 72.6-3-16.5L53 62.6 56 79z"/><path d="m308 201.5-32 6.3-5-5 32-6.2z" class="O"/><path d="m183 348.5 3.4-7.3 4.7-22-3.6 8.2z" class="M"/><path d="m291.3 247-31.6 6.3-1.7-9.4 31.7-6z" class="Ah"/><path d="m228 297.5-26 8.3 2-9.6 25.8-7.7z" class="BG"/><path fill="#08f" d="M157.3 386.6h6l8-15.5-6.5.8z"/><path d="m114.4 63-1.8-15.3L97 41l1.7 15.2z" class="CE"/><path d="m55.8 273-13.7 2 1 15.5 13.6-3.4z" class="k"/><path d="m171.3 371 5-3.7 6.6-19-5.4 4.6z" class="U"/><path d="m152 349.8-10.8 11 6-8 10.3-10.2z" class="o"/><path d="m260.4 272-29.5 7v-10l29.5-6.3z" class="d"/><path d="m32.6 275.8-6-1 1.3 18.3 6-.6z" class="Bk"/><path d="m249.5 196.4-33.4 4.2-5.3 2 33.5-4.3z" class="N"/><path d="m157.3 107.4-1.6-15.2-13.2-18.4 1.6 15z" class="Aj"/><path d="m42 275-9.5.8 1.2 16.8 9.3-2z" class="AY"/><path d="m23.4 252.8-2.3-6-.5 20.7 2.4 4.8z" class="CS"/><path d="m199 314.5-21.2 9.4 3.2-9.5 21-8.6z" class="Aw"/><path d="m164.3 221-31 2.3-3.4 8.3 31.3-3z" class="z"/><path d="m38 136-3-16-9.5 17 3.3 15.5z" class="Ac"/><path d="m173.6 332-16 10.3 4.6-9 15.7-9.5z" class="M"/><path d="M129.7 74 128 58.8l-15.4-11 1.8 15.3z" class="CF"/><path d="m206 206.3-33 2.8-4.6 5.3 33.2-3z" class="BU"/><path d="m289.7 238-31.7 6-2.5-9 31.8-5.5z" class="X"/><path d="m137.6 389 5 6 8.4-11.2-5.5-5.3z" class="Bn"/><path d="m144 89-1.6-15-14.5-15 1.7 15.2z" class="CA"/><path d="m195 259.2-.3-13.5-2.5-26.4.4 14z" class="X"/><path d="M74.7 257.3 56.2 259l-.4 14 18.5-3z" class="Cg"/><path d="m255 195.8-33.2 4.2-5.6.6 33.4-4.2z" class="K"/><path d="m130 231.6-27.6 1.8-2.6 10 27.8-2.6z" class="AA"/><path d="m141.2 360.7-5.4 10.6 6.6-9 4.8-9.8z" class="Ag"/><path d="m187.3 193-1.5-15-7.4-25.4L180 168z" class="BR"/><path d="m23.6 226.8-2-9.4-2.6 21 2 8.2z" class="AX"/><path d="m99.7 243.5-23.3 1.7-1.7 12 23.4-2.8z" class="Ck"/><path d="m31.4 167-2.6-14.5-7.2 19.3 2.8 13.7z" class="BR"/><path d="m230 288.6-25.8 7.6 1-10.3 25.7-7z" class="AY"/><path d="M260.5 262.7 231 269l-1-10 29.6-5.8z" class="Y"/><path d="m26.4 197.8-2-12.3-5 20.6 2.2 11.3z" class="N"/><path d="m287.3 229.3-31.8 5.5-3.3-8.3 32-5.3z" class="AZ"/><path d="m135 380.8 2.6 8 7.8-10.4-3.3-7.3z" class="CJ"/><path d="m135.8 371.3-.8 9.6 7-9.7.2-8.8z" class="y"/><path d="m260.3 196.7-33 4.2-5.6-.9 33.2-4.2z" class="An"/><path d="m27 257-3.7-4-.4 19.4 3.6 2.7z" class="BB"/><path d="m168.3 214.4-30.8 1.7-4.2 7 31-2.2z" class="AG"/><path d="m210.8 202.7-32.7 2.6-5.2 3.8 33-2.8z" class="e"/><path d="m56.2 259-13.7.7L42 275l13.7-2z" class="Cg"/><path d="m157.5 342.4-10.3 10.2 5-9.8 9.9-9.4z" class="L"/><path d="m151 383.8 6.4 2.8 7.5-14.7-6.8-1.8z" class="v"/><path d="m202 305.8-21 8.6 2.3-10.5 20.8-7.7z" class="Bt"/><path d="m284.2 221.2-32 5.3-4-7.5 32.2-5z" class="AG"/><path d="M85.5 70.5 82.8 54l-15.3 2 3 16.5z" class="CF"/><path d="m59 95.8-3-17-13 10.5 3.4 16.6z" class="Aj"/><path d="m265.8 199-32.8 4.3-5.7-2.4 33-4.2z" class="An"/><path d="m177.8 324-15.7 9.5 3.6-10.4 15.3-8.6z" class="AV"/><path d="m193.4 295.8 1.5-11.2.1-25.4-1.5 12z" class="S"/><path d="m280.3 214-32.2 5-4.6-6.5 32.4-4.7z" class="a"/><path d="m271 202.8-32.6 4.4-5.4-4 32.8-4.3z" class="E"/><path d="m33 259.2-6-2.3-.5 18 6 1zm9.5.6-9.4-.6-.5 16.6 9.5-.8z" class="BB"/><path d="m259.7 253.2-29.6 5.8-1.8-10 29.7-5.2z" class="BJ"/><path d="m276 207.8-32.4 4.7-5-5.3 32.6-4.5z" class="e"/><path d="m133.3 223.3-27.4 1-3.6 9 27.6-1.8z" class="F"/><path d="m231 279-25.7 7v-11l25.8-6z" class="d"/><path d="m76.4 245.2-18.4.7-1.8 13.2 18.5-1.8z" class="Ah"/><path d="m164.8 372 6.5-.8 6.2-18-6.8 2z" class="I"/><path d="m216 200.6-32.4 2.4-5.6 2.3 32.7-2.6z" class="K"/><path d="m102.3 233.4-23 .7-2.8 11 23.3-1.7z" class="f"/><path d="m147.2 352.6-5 9.8 5.5-10.8 4.4-8.8z" class="J"/><path d="m187.4 327.5 3.6-8.2 2.4-23.5-3.7 9z" class="Bt"/><path d="m25.8 234.2-2.2-7.4-2.5 20 2.3 6z" class="X"/><path d="m180 168-1.6-15.4-9.6-23.8 1.8 15.7z" class="Ad"/><path d="m173 209-30.5 1.3-5 5.7 30.8-1.7z" class="AI"/><path d="m145.4 378.5 5.5 5.3 7-13.7-6-4.3z" class="AD"/><path d="m177.5 353 5.4-4.6 4.5-21-5.7 5.6z" class="BA"/><path d="m258 243.8-29.7 5.2-2.7-9.5 30-4.7z" class="f"/><path d="m204 296.2-20.8 7.7 1-11.2 20.8-6.8z" class="AY"/><path d="m192.6 233.3-.4-14-5-26.2.5 14.7z" class="N"/><path d="M49 122.5 46.3 106 35 120l3 16z" class="Bu"/><path d="m142.4 362.4-.3 8.8 6-11.7-.3-8z" class="o"/><path d="m221.7 200-32 2.4-6 .6 32.4-2.4z" class="P"/><path d="m142 371.2 3.3 7.3 6.5-12.7-3.8-6.3z" class="U"/><path d="m162 333.4-10 9.4 4-11.4 9.5-8.4z" class="T"/><path d="m58 246-13.6-.6-2 14.5 13.7-.7z" class="BJ"/><path fill="#840000" d="m101 72.8-2.5-16.5L82.8 54l2.7 16.5z"/><path d="m231 269-25.8 6-1-10.8 26-5.3z" class="Y"/><path d="m181 314.4-15.4 8.6 2.5-11.5 15-7.6z" class="c"/><path d="m28 208.3-1.6-10.5-4.7 19.6 2 9.4z" class="O"/><path d="m255.5 234.8-30 4.7-3.6-9 30.2-4z" class="F"/><path d="m137.5 216-27 .4-4.5 7.8 27.4-1z" class="BU"/><path d="m29.2 239.7-3.4-5.5-2.4 18.6 3.7 4z" class="AA"/><path d="m178 205.3-30 1-5.6 4L173 209z" class="E"/><path d="m227.3 201-31.7 2.4-6-1 32-2.4z" class="Q"/><path d="M40.3 151 38 136l-9.3 16.6 2.6 14.5z" class="AK"/><path d="m79.2 234-18.2-.5-3 12.3 18.4-.7z" class="Ay"/><path d="m44.4 245.3-9.3-2-2 16 9.4.6z" class="Ae"/><path d="M33 180.2 31.4 167l-7 18.5 2 12.3z" class="Al"/><path d="m106 224.3-23-.3-4 10 23-.7z" class="AN"/><path fill="#ff2d00" d="m170.6 144.5-1.8-15.7-11.5-21.4 2 16z"/><path d="m252.2 226.5-30.2 4-4.3-8L248 219z" class="Aa"/><path d="m158 370 6.8 1.8 6-17-7.3-.8z" class="AS"/><path d="m73.2 89.7-2.8-17L56 79l3 17z" class="BQ"/><path d="m35 243.3-6-3.6-2 17.2 6 2.3z" class="Ab"/><path d="m233 203.3-31.4 2.6-6-2.6 31.7-2.4z" class="Q"/><path d="m205.2 286-20.8 6.8V281l20.8-5.8z" class="d"/><path d="m230 259-26 5.3-2-10.8 26-4.5z" class="Ao"/><path d="m152.2 342.8-4.4 8.8 4.3-12.4 4-7.8z" class="G"/><path d="m248 219-30.4 3.6-5-7 30.7-3.2z" class="AI"/><path d="m238.4 207.2-31 3-5.7-4.2 31.4-2.6z" class="P"/><path d="M116.7 79.5 114.4 63l-15.8-6.8L101 73z" class="Ct"/><path d="m243.5 212.5-30.7 3.2-5.5-5.6 31-3z" class="E"/><path d="m193.5 271.2 1.5-12-2.4-25.8-1.5 12.8z" class="X"/><path d="m183.7 203-29.7.8-6 2.5 30-1z" class="Q"/><path d="m142.4 210.4-26.6-.1-5.4 6.2 27-.4z" class="N"/><path d="m183.2 304-15 7.6 1.2-12.3 15-6.5z" class="Bk"/><path d="m165.6 323-9.5 8.4 2.6-12.6 9.4-7.3z" class="q"/><path d="m159.2 123.3-2-16L144 89l2 16.2z" class="Cm"/><path d="m152 365.8 6 4.3 5.4-16-6.4-3.2z" class="J"/><path d="m170.7 355 6.8-2 4.3-20-7 3z" class="G"/><path d="m147.8 351.6.3 8 4.6-13.6-.6-6.7z" class="M"/><path d="m61 233.6-13.3-1.7-3.3 13.4 13.6.6z" class="z"/><path fill="#9b0000" d="M132 90.4 129.7 74l-15.3-11 2.3 16.4z"/><path d="m30 217-2-8.7-4.4 18.5 2.2 7.4z" class="Am"/><path d="m228.3 249-26 4.5-3-10.3 26.4-3.7z" class="AX"/><path d="m187.8 207.8-.5-14.7-7.3-25 .7 15z" class="j"/><path d="M146.2 105 144 89l-14.4-15 2.2 16.4z" class="BQ"/><path d="m148 359.5 3.8 6.3 5-14.8-4.3-5z" class="L"/><path d="m189.7 305 3.7-9 .1-24.6-3.8 10z" class="D"/><path d="m110.4 216.5-22.4-1-5 8.5 22.8.2z" class="AI"/><path d="m205.2 275-20.8 5.8-1-11.8 21-4.8z" class="BT"/><path d="m181.8 333 5.6-5.6 2.3-22.6-5.8 6.7z" class="Cd"/><path d="m189.6 202.4-29.3.7-6.3.7 29.7-.8z" class="m"/><path d="m83 224-17.8-1.5-4.3 11 18.2.5z" class="AM"/><path d="m61.6 112.7-2.5-17L46.3 106l2.8 16.5z" class="Ai"/><path fill="#dbff1c" d="m47.7 231.8-9-3.2-3.6 14.7 9.3 2z"/><path d="m225.6 239.5-26.4 3.7-3.8-9.6 26.6-3z" class="AN"/><path d="m148 206.3-26.2-.5-6 4.5 26.6.1z" class="Q"/><path d="m33 223.7-3-6.7-4 17.2 3.4 5.5z" class="Aa"/><path fill="#9f0000" d="m88 87.7-2.6-17.2-15 2 2.8 17z"/><path d="m156 331.4-4 7.8 3-14 3.7-6.5z" class="Bm"/><path d="m34.3 191.8-1.2-11.6-6.7 17.6 1.6 10.5z" class="u"/><path d="m195.6 203.3-28.8 1-6.5-1 29.3-.7z" class="l"/><path d="m184.4 292.7-15 6.5v-13l15-5.4z" class="D"/><path d="m38.7 228.6-5.6-5-4 16 6 3.6z" class="Bs"/><path d="m222 230.6-26.6 3-4.7-8.6 27-2.4z" class="a"/><path d="m168 311.5-9.4 7.3 1.4-13.6 9.2-6z" class="Bf"/><path d="m51 138.3-2-15.8L38 136l2.2 15.2z" class="Ce"/><path d="m163.4 354.2 7.3.8 4-19-7.6.4z" class="T"/><path d="m204.2 264.3-21 4.8-2.2-11.8 21-3.8z" class="Ab"/><path d="m201.6 206-28.4 1-6.4-2.8 28.8-1z" class="l"/><path d="m41.6 165-1.3-14-9 16 1.7 13.2z" class="BD"/><path d="m217.7 222.6-27 2.4-5.3-7.5 27.4-1.8z" class="N"/><path d="m115.8 210.3-22-1.6-6 7 22.4 1z" class="P"/><path d="m207.3 210-27.8 1.4-6.3-4.5 28.4-1z" class="m"/><path d="m65.3 222.6-13-2.8-4.6 12 13.3 1.7z" class="Am"/><path d="m212.8 215.7-27.4 1.8-6-6 27.8-1.4z" class="P"/><path d="m154 203.8-25.7-.7-6.5 2.7 26.2.5z" class="Bq"/><path d="m180.7 183-.7-15-9.4-23.5.8 15.7z" class="AK"/><path d="m191 246.2 1.5-12.8-4.8-25.6-1.3 13.6z" class="O"/><path d="m152 339.2.6 6.7 3.2-15-1-5.5z" class="Ak"/><path d="m88 215.6-17.3-2.3-5.4 9.3L83 224z" class="E"/><path d="m157 351 6.4 3.2 3.7-17.7-6.7-2z" class="Be"/><path d="m152.7 346 4.3 5 3.4-16.4-4.5-3.8z" class="AF"/><path d="m202.2 253.5-21 3.8-3.3-11.2 21.4-3z" class="z"/><path d="m184.4 281-15 5.4-1.3-13 15.3-4.2z" class="Cq"/><path d="m35.8 201.5-1.5-9.7-6.3 16.5 2 8.7z" class="BP"/><path d="m174.7 336 7-3 2.2-21.5-7.2 4.2z" class="BG"/><path d="m103.3 90-2.2-17.2-15.6-2.3 2.6 17.2z" class="CF"/><path d="m160.3 203-25-.8-7 .8 25.7.7z" class="AH"/><path d="m52.3 219.8-8.6-4.4-5 13.2 9 3.3z" class="e"/><path d="m158.7 318.8-3.7 6.5 1.4-14.8 3.7-5.3z" class="n"/><path d="m75.2 106.7-2-17-14 6 2.5 17z" class="Cl"/><path d="m189.7 281.3 3.8-10-2.4-25-3.6 11z" class="AA"/><path d="m169.3 299.2-9.2 6v-14l9.3-4.8z" class="D"/><path d="m121.8 205.8-21.4-2-6.5 5 22 1.6z" class="Bq"/><path d="m184 311.6 5.8-6.7v-23.6L184 289z" class="D"/><path d="m199.3 243.2-21.5 3-4.3-10.5 22-2z" class="AM"/><path d="m38.6 209.4-2.8-8-6 15.5 3.2 6.7z" class="Af"/><path d="m171.4 160.2-.8-15.7-11.4-21.2 1 16.2z" class="Co"/><path d="m43.7 215.4-5-6-5.5 14.3 5.6 5z" class="An"/><path d="m166.8 204.2-24.5-.8-7-1 25 .8z" class="u"/><path d="m70.7 213.3-12.5-3.8-6 10.3 13 2.8z" class="Q"/><path d="m94 208.7-17-3-6.3 7.6 17.3 2.3z" class="l"/><path d="m42.3 177.6-.7-12.5-8.5 15 1.2 11.6z" class="Cf"/><path d="m183.3 269-15.3 4.2-2.5-13 15.6-3z" class="Cj"/><path d="m118.6 96.6-2-17L101 73l2.2 17z" class="Cs"/><path d="m195.4 233.6-22 2-5-9.4 22.3-1.2z" class="O"/><path d="m155 325.3 1 5.5 1.6-16.3-1-4z" class="V"/><path d="m167 336.5 7.6-.4 2-20.3-7.7 1.7z" class="BG"/><path d="m63 129-1.3-16.2-12.5 9.8 1.8 15.8z" class="Bz"/><path d="m173.2 207-24-.5-7-3 24.5.8z" class="Bp"/><path d="m186.5 221.4 1.3-13.6-7-24.7-1.2 14.4z" class="Al"/><path d="m160.2 139.5-1-16.2-13-18.2 1.3 16.5z" class="Ai"/><path d="m128.3 203-20.7-2.3-7.2 3 21.4 2z" class="u"/><path d="m190.7 225-22.3 1.2-6-8.2 23-.5z" class="P"/><path d="m51.7 153-.8-14.7-10.6 12.8 1.3 14z" class="BW"/><path d="m179.5 211.5-23.4-.1-6.8-5 24 .5z" class="AH"/><path d="m185.4 217.5-22.9.5-6.4-6.6 23.4.1z" class="l"/><path d="M133.5 107.2 132 90.4l-15.2-11 2 17z" class="CC"/><path d="m169.3 286.3-9.3 4.8-1.4-14.3 9.4-3.5z" class="CB"/><path fill="#c40000" d="m147.5 121.6-1.3-16.5-14.3-14.7 1.6 16.8z"/><path d="m156 330.8 4.5 3.8L162 317l-4.6-2.5z" class="Z"/><path d="m160 305.2-3.7 5.3-.1-15.5 3.7-4z" class="D"/><path d="m160.4 334.6 6.7 2 2-19-7-.5z" class="AE"/><path d="m181 257.3-15.6 3L162 248l16-2z" class="F"/><path d="m58.2 209.5-8-5.3-6.5 11.2 8.6 4.4z" class="Bq"/><path fill="#ad0000" d="M89.6 105 88 87.7l-14.8 2 2 17z"/><path d="m43.3 188.2-1-10.6-8 14.2 1.5 9.7z" class="r"/><path d="m100.4 203.8-16-3.6-7.2 5.5 16.8 3z" class="By"/><path d="m176.7 315.8 7.2-4.2V289l-7.3 5.5z" class="D"/><path d="m135.2 202.3-20-2.4-7.6.9 20.7 2.3z" class="Al"/><path d="m77 205.7-11.8-4.5-7 8.3 12.5 3.8z" class="u"/><path d="m187.5 257.2 3.6-11-4.6-24.8-3.5 12z" class="AI"/><path d="m50.2 204.2-4.7-7-7 12.3 5 6z" class="By"/><path d="m45.5 197-2.2-9-7.5 13.3 2.8 8z" class="j"/><path d="m184 289 5.7-7.8-2.2-24-5.7 9z" class="Cj"/><path d="m177.8 246-16 2-4.7-11.6 16.3-1z" class="a"/><path d="m168 273.3-9.4 3.5-2.7-14.2 9.6-2.2z" class="X"/><path d="m156.4 310.5 1 4-.1-17-1-2.6z" class="D"/><path d="m179.5 197.5 1.2-14.3-9.3-23-1 15z" class="DH"/><path d="m142.3 203.4-19.4-2.2-7.7-1.3 20 2.4z" class="j"/><path fill="#ff5d00" d="m52 166-.2-13-10 12 .7 12.5z"/><path d="m160 291-3.7 4-1.5-15.8 3.8-2.4z" class="DE"/><path d="m76 123.2-.8-16.5-13.6 6L63 129z" class="DI"/><path d="m173.5 235.6-16.3.9-5.6-10.3h16.8z" class="K"/><path d="M107.6 200.8 92 197l-7.8 3.2 16 3.6z" class="BR"/><path d="m169 317.5 7.7-1.7v-21.2l-7.7 3z" class="D"/><path d="m104.5 107-1.2-17L88 87.7l1.6 17z" class="CC"/><path d="m149.3 206.5-18.7-2-7.7-3.4 19.4 2.2z" class="BF"/><path d="m65.2 201.2-7.4-6-7.7 9 8 5.4z" class="j"/><path d="m157.5 314.5 4.6 2.5v-18.4l-4.7-1z" class="D"/><path d="M63 144v-15l-12 9.4.8 14.7z" class="Bw"/><path d="M168.4 226.2h-16.8l-6.5-9 17.4.8z" class="l"/><path d="m156 211.4-18-1.4-7.5-5.4 18.7 2z" class="Al"/><path d="m162 317 7 .5v-19.8l-7 1z" class="D"/><path d="m84.3 200.2-11.2-5-8 6 12 4.5z" class="BV"/><path d="m162.5 218-17.4-.8-7-7.2 18 1.4z" class="Bp"/><path d="m165.5 260.4-9.6 2.2-4-13.6 10-.9z" class="Bs"/><path d="m170.5 175.2.9-15-11.2-20.7-.5 15.7z" class="Cc"/><path d="m52.2 177.6-.3-11.5-9.6 11.5 1 10.6z" class="Br"/><path d="m183 233.4 3.5-12-7-24-3.2 13z" class="By"/><path d="m115 200-14.7-4-8.3 1 15.5 3.8z" class="r"/><path d="m57.8 195-4-8-8.3 10 4.6 7z" class="t"/><path d="m176.7 294.6 7.3-5.5-2.2-22.8-7 6.7z" class="Ab"/><path d="m119.3 113.5-.7-17-15.3-6.6 1.2 17z" class="CC"/><path d="m156.3 295 1 2.6-1.7-17.2-1-1.2z" class="Ck"/><path d="m158.6 276.8-3.8 2.4-3-15.5 4-1z" class="AX"/><path d="m53.8 187.2-1.6-9.6-9 10.6 2.2 9z" class="BS"/><path d="m181.8 266.2 5.7-9-4.5-23.8-5.5 10.2z" class="a"/><path d="m162 248-10 1-5.2-12.7 10.5.2z" class="O"/><path d="m159.7 155.2.5-15.7-12.7-18-.2 16.3z" class="Bz"/><path fill="#c40000" d="m90 121.5-.3-16.7-14.4 2 .8 16.5z"/><path d="m133.7 124-.2-16.7-15-10.6.7 17z" class="DK"/><path d="m123 201.2-14-3.8-8.5-1.4 14.7 4z" class="t"/><path d="m92 197-10.4-5.4-8.6 3.6 11.2 5zm-19-1.8-6.7-6.7-8.6 6.6 7.4 6z" class="BN"/><path d="m147.3 138 .2-16.3-14-14.4.2 16.7z" class="BM"/><path d="M62.7 157.7 63 144l-11.4 9 .2 13z" class="BK"/><path d="m157.4 297.6 4.7 1-1.8-18.7-4.6.5z" class="BJ"/><path d="m169 297.7 7.7-3-2-21.6-7.6 4.5z" class="Ae"/><path d="m157.2 236.5-10.5-.2-6.2-11.4 11 1.3z" class="Af"/><path d="m75.6 138.7.4-15.5-13 5.7v15z" class="Ai"/><path d="m130.6 204.6-13.2-3.5-8.5-3.7 14 3.8z" class="t"/><path d="m162 298.6 7-1-2-20-6.8 2.3z" class="Ao"/><path d="m156 262.6-4 1-4.4-15 4.5.3z" class="Aa"/><path d="m176.3 210.5 3.2-13-9-22.3-2.8 14z" class="BO"/><path d="m151.6 226.2-11-1.3-7-9.8 11.7 2z" class="u"/><path d="m138 210-12.5-3-8.2-6 13.2 3.5z" class="Ca"/><path d="m154.8 279.2.9 1.2-3.3-17-.6.3z" class="Az"/><path d="m145 217.2-11.7-2-7.8-8 12.5 3z" class="j"/><path fill="#f70" d="m66.4 188.5-3.2-8.5-9.4 7.2 4 8z"/><path d="m100.4 196-9.6-5.5-9 1L92 197z" class="BS"/><path d="m62.3 169.8.4-12L52 166l.3 11.5z" class="BW"/><path d="m104.2 123.7.3-16.6-15-2.3.3 16.7z" class="DK"/><path d="m174.7 273 7-6.7-4.3-22.7-7 8z" class="Aa"/><path d="m63.2 180-1-10.2-10 7.8 1.6 9.6z" class="Ac"/><path fill="#f70" d="m81.7 191.6-6-7-9.4 4 6.7 6.7z"/><path d="m177.5 243.6 5.5-10.2-6.7-23-5.2 11.3z" class="AH"/><path d="m152 249-4.5-.3-5.7-14 5 1.5z" class="K"/><path d="m155.7 280.4 4.6-.5-3.6-18.5-4.3 2z" class="F"/><path d="m167.7 189 2.8-14-10.8-20-2.5 14.7z" class="BW"/><path d="m109 197.4-9-5.4-9.3-1.6 9.6 5.5z" class="BD"/><path d="m74.4 152.7 1.2-14L63 144l-.4 13.7z" class="CD"/><path d="m88.8 137 1-15.5-14 1.7-.4 15.5z" class="DI"/><path d="m151.8 263.7.6-.3-4.8-16.4-.2 1.7z" class="Am"/><path d="m167 277.6 7.7-4.6-4-21.3-7.4 6z" class="AG"/><path d="m118.4 129.8.9-16.3-14.8-6.4-.3 16.6z" class="BQ"/><path d="m146.7 236.3-5-1.5-7-12.5 5.7 2.6z" class="AH"/><path d="m160.3 280 6.7-2.3-3.8-20-6.5 3.8z" class="AN"/><path d="m75.8 184.5-2.4-8.8-10.2 4.3 3.2 8.5z" class="Ac"/><path d="m117.4 201-8-5-9.3-4 8.8 5.3z" class="BO"/><path d="m90.8 190.5-5-7-10 1 6 7z" class="AK"/><path d="m157.2 170 2.5-14.7-12.4-17.3-2 15.4z" class="Bx"/><path d="m140.5 225-5.7-2.6-7.8-11 6.4 3.7z" class="j"/><path d="m132.3 139.8 1.4-16-14.4-10.4-1 16.3z" class="Cl"/><path d="m125.6 207-7-4.5-9-6.5 8 5z" class="Cf"/><path d="m73.3 165 1-12.4-11.7 5-.4 12z" class="Bu"/><path d="m171 221.8 5.2-11.3-8.6-21.4-4.8 12.4z" class="Cb"/><path d="m133.4 215-6.4-3.7-8.5-8.8 7 4.5z" class="t"/><path d="m145.3 153.3 2-15.4-13.6-14-1.4 16z" class="Cm"/><path d="m170.6 251.7 7-8-6.4-21.8-6.6 9.3z" class="Bq"/><path d="m73.4 175.7-.1-10.6-11 4.7.9 10.2z" class="BW"/><path d="m147.4 248.7.2-1.7-6.2-15.2.3 3z" class="Af"/><path d="m152.4 263.4 4.3-2-5.3-17.7-3.8 3.3z" class="e"/><path d="m102.4 139.2 1.8-15.5-14.3-2.2-1 15.5z" class="DD"/><path d="m100 192-4.2-7-10.2-1.6 5 7z" class="Ad"/><path d="m87 151.2 2-14.2-13.2 1.7-1.2 14z" class="Ai"/><path d="m163.2 257.6 7.4-6-6-20.6-7 7.3z" class="Af"/><path d="m85.7 183.4-1.5-9-10.8 1.3 2.4 8.8z" class="DG"/><path d="m156.7 261.5 6.5-4-5.6-19.2-6.2 5.3z" class="K"/><path d="m141.7 234.8-.3-3-7.5-13.7.9 4.2z" class="Bo"/><path d="m163 201.5 4.8-12.4-10.5-19.2L153 183z" class="Bv"/><path d="m109.4 196-3.3-6.6L96 185l4.2 7z" class="Ad"/><path fill="#f20" d="m85 163.7 2-12.5-12.5 1.5-1 12.4z"/><path d="m147.6 247 3.8-3.3-6.7-16.6-3.3 4.7z" class="BP"/><path d="m84.2 174.4.8-10.7-11.7 1.4.1 10.6z" class="BK"/><path d="m164.5 231 6.6-9.3-8.2-20.3-6.2 10.5z" class="t"/><path d="m116 145 2.4-15.2-14.2-6-1.8 15.5z" class="BM"/><path d="m134.8 222.3-1-4.2-8.5-12 1.6 5.2z" class="t"/><path d="m118.5 202.6-2.5-6-10-7 3.3 6.6z" class="AK"/><path d="m127 211.4-1.6-5.2-9.4-9.6 2.5 6z" class="BO"/><path d="m153 183 4.3-13.2-12-16.6-3.7 14z" class="Bu"/><path d="m96 185-.6-8.8-11-1.8 1.5 9z" class="BW"/><path d="m99.7 153.2 2.7-14-13.6-2.2-2 14.2z" class="DJ"/><path d="m129.2 154.5 3-14.7-14-10L116 145z" class="Aj"/><path d="m151.5 243.7 6-5.3-7.3-18-5.6 6.6z" class="Bo"/><path d="m141.6 167.3 3.7-14-13-13.4-3 14.7z" class="DC"/><path d="m157.6 238.4 7-7.3-7.8-19-6.5 8.5z" class="BR"/><path d="m141.4 231.8 3.3-4.7-8.2-15-2.6 6z" class="BV"/><path d="m156.7 212 6.2-10.5-10-18.4-5.5 11.6z" class="Cp"/><path d="m95.3 176.2 1.7-10.6-12-2-.8 10.7z" class="Bu"/><path d="m106 189.5.3-8.4-11-5 .6 8.8z" class="BW"/><path d="m97 165.6 2.7-12.4-12.8-2-2 12.5z" class="CD"/><path d="m134 218 2.7-6-9.3-12.8-2 7z" class="BO"/><path fill="#ed0400" d="M112.5 158.8 116 145l-13.6-5.8-2.7 14z"/><path fill="#f50" d="m116 196.6 1-7.8-10.7-7.7-.3 8.4z"/><path d="m144.7 227 5.6-6.6-8.8-16-5 7.7z" class="BN"/><path d="m125.4 206.2 2-7-10.2-10.5-1 7.8z" class="Cp"/><path d="m150.3 220.5 6.5-8.5-9.4-17.3-6 9.7z" class="BD"/><path fill="#ff4300" d="M147.4 194.7 153 183l-11.3-15.8-5 12.5z"/><path d="m106.4 181 2.5-10.3-12-5.2-1.7 10.6z" class="Co"/><path d="m125 167.7 4.2-13.2L116 145l-3.5 13.8z" class="DC"/><path d="m109 170.8 3.6-12-12.8-5.6-2.7 12.4z" class="CD"/><path fill="#f20" d="m136.7 179.8 5-12.5-12.4-12.8-4.2 13.2z"/><path d="m136.5 212 5-7.7-10-14-4.2 8.8z" class="Cp"/><path fill="#f50" d="m141.5 204.4 6-9.7-10.7-15-5.2 10.7z"/><path d="m117 188.8 3.4-9.6-11.6-8.4-2.5 10.3z" class="Ce"/><path d="m127.3 199.3 4.2-8.8-11-11.3-3.4 9.6z" class="s"/><path d="m120.5 179.2 4.5-11.5-12.5-9-3.6 12z" class="Bw"/><path d="m131.5 190.5 5.2-10.7-11.8-12-4.4 11.5z" class="BK"/></g></svg>